<?xml version="1.0" encoding="UTF-8" standalone="no"?>
<!-- Created with Inkscape (http://www.inkscape.org/) -->

<svg
   xmlns:dc="http://purl.org/dc/elements/1.1/"
   xmlns:cc="http://creativecommons.org/ns#"
   xmlns:rdf="http://www.w3.org/1999/02/22-rdf-syntax-ns#"
   xmlns:svg="http://www.w3.org/2000/svg"
   xmlns="http://www.w3.org/2000/svg"
   xmlns:xlink="http://www.w3.org/1999/xlink"
   version="1.0"
   width="422.37021"
   height="73.879318"
   id="svg2">
  <defs
     id="defs4">
    <linearGradient
       id="linearGradient2740">
      <stop
         id="stop2742"
         style="stop-color:#ff0000;stop-opacity:1"
         offset="0" />
      <stop
         id="stop2744"
         style="stop-color:#000000;stop-opacity:1"
         offset="1" />
    </linearGradient>
    <radialGradient
       cx="308.16611"
       cy="288.10068"
       r="161.42857"
       fx="308.16611"
       fy="288.10068"
       id="radialGradient2746"
       xlink:href="#linearGradient2740"
       gradientUnits="userSpaceOnUse"
       gradientTransform="matrix(1.95528,0.0382446,-0.0366955,1.87608,-264.836,-299.924)" />
  </defs>
  <g
     transform="matrix(2.99217,0,0,2.99217,3.23201,-2.38945)"
     id="g4020">
    <line
       id="line3906"
       y2="25.195"
       x2="23.750999"
       y1="1.0930001"
       x1="23.750999"
       stroke-miterlimit="3.864"
       style="fill:none;stroke:#000000;stroke-width:0.199;stroke-miterlimit:3.86400008" />
    <g
       id="g3908">
      <defs
         id="defs3910">
        <rect
           width="139.188"
           height="26.288"
           x="0"
           y="0"
           id="SVGID_1_" />
      </defs>
      <clipPath
         id="SVGID_2_">
        <use
           id="use3914"
           style="overflow:visible"
           x="0"
           y="0"
           width="322.85715"
           height="314.28571"
           xlink:href="#SVGID_1_" />
      </clipPath>
      <path
         d="m 36.976,10.356 c 0.042,-1.042 -0.409,-1.853 -2.563,-1.853 -1.991,0 -3.088,0.603 -3.33,1.961 -0.249,1.405 0.664,1.652 2.872,1.915 3.4,0.416 5.271,0.232 4.646,3.736 -0.42,2.361 -2.165,3.75 -5.901,3.75 -4.497,0 -5.431,-1.371 -5.278,-3.371 l 2.509,0 c 0.036,0.863 0.519,1.921 2.857,1.921 1.885,0 3.031,-0.634 3.256,-1.898 0.311,-1.745 -0.643,-1.854 -2.764,-2.085 -3.302,-0.355 -5.167,-0.633 -4.629,-3.659 0.363,-2.038 1.897,-3.72 6.021,-3.72 4.618,0 4.972,1.79 4.8,3.303 l -2.496,0 0,0 z"
         clip-path="url(#SVGID_2_)"
         id="path3916"
         style="fill-rule:evenodd" />
      <path
         d="m 42.874,13.582 c 0.206,-1.157 0.748,-1.682 2.555,-1.682 1.281,0 1.901,0.246 1.695,1.404 -0.104,0.586 -0.219,0.88 -2.374,1.019 -2.467,0.155 -4.487,-0.03 -4.981,2.748 -0.353,1.978 1.201,2.795 3.949,2.795 1.868,0 3.24,-0.51 4.004,-0.634 l 0.637,-0.108 1.118,-6.282 c 0.332,-1.868 -1.952,-2.393 -3.79,-2.393 -2.825,0 -4.748,0.911 -5.145,3.133 l 2.332,0 0,0 z m 1.714,2.086 c 1.169,-0.063 1.615,-0.14 2.168,-0.295 l -0.368,2.069 c -0.159,0.896 -1.594,0.973 -2.242,0.973 -1.251,0 -2.176,-0.263 -1.949,-1.544 0.175,-0.988 0.768,-1.111 2.391,-1.203"
         clip-path="url(#SVGID_2_)"
         id="path3918"
         style="fill-rule:evenodd" />
      <path
         d="m 63.13,10.448 c -1.591,0 -2.942,0.479 -3.665,1.159 -0.53,-0.757 -1.214,-1.159 -2.882,-1.159 -2.27,0 -3.86,0.695 -4.6,0.772 l -0.314,0.031 -1.494,8.399 2.47,0 1.101,-6.192 c 0.114,-0.632 0.479,-1.558 2.332,-1.558 1.854,0 1.889,0.926 1.776,1.558 l -1.102,6.192 2.471,0 1.101,-6.192 c 0.113,-0.632 0.494,-1.558 2.256,-1.558 1.852,0 1.856,0.926 1.744,1.558 l -1.102,6.192 2.471,0 1.211,-6.809 C 67.197,11.189 65.6,10.448 63.13,10.448"
         clip-path="url(#SVGID_2_)"
         id="path3920"
         style="fill-rule:evenodd" />
      <path
         d="m 74.389,8.503 c -0.989,0 -1.547,0.279 -1.737,1.344 l -0.145,0.818 2.238,0 -0.294,1.652 -2.239,0 -1.306,7.333 -2.47,0 1.305,-7.333 -1.698,0 0.294,-1.652 1.697,0 0.237,-1.328 c 0.284,-1.59 2.244,-2.285 4.453,-2.285 0.248,0 0.507,0.009 0.767,0.032 l -0.29,1.603 C 75.02,8.574 74.759,8.503 74.389,8.503"
         clip-path="url(#SVGID_2_)"
         id="path3922"
         style="fill-rule:evenodd" />
      <polygon
         points="74.698,22.707 76.674,22.707 84.099,10.665 81.982,10.665 78.119,17.195 76.672,10.665 73.893,10.665 76.406,19.959 76.406,19.959 "
         clip-path="url(#SVGID_2_)"
         id="polygon3924"
         style="fill-rule:evenodd" />
      <polygon
         points="85.746,7.269 83.543,19.649 86.013,19.649 88.216,7.269 88.216,7.269 "
         clip-path="url(#SVGID_2_)"
         id="polygon3926"
         style="fill-rule:evenodd" />
      <path
         d="m 91.117,15.508 c -0.015,0.039 3.276,4.081 3.288,4.143 l 2.47,0 c -0.039,-0.062 -4.223,-5.424 -4.22,-5.474 l 5.725,-3.473 -3.084,0 -3.739,2.439 1.037,-5.874 -2.47,0 -2.204,12.381 2.47,0 0.727,-4.142 z"
         clip-path="url(#SVGID_2_)"
         id="path3928"
         style="fill-rule:evenodd" />
      <path
         d="m 102.589,8.627 c 0.136,-0.756 -0.359,-1.358 -1.116,-1.358 -0.758,0 -1.467,0.602 -1.602,1.358 -0.134,0.757 0.36,1.359 1.117,1.359 0.757,0 1.466,-0.602 1.601,-1.359 m -0.485,2.038 -2.47,0 -1.601,8.986 2.471,0 1.6,-8.986 z"
         clip-path="url(#SVGID_2_)"
         id="path3930"
         style="fill-rule:evenodd" />
      <path
         d="m 108.82,10.448 c -2.271,0 -3.86,0.695 -4.601,0.772 l -0.313,0.031 -1.494,8.399 2.47,0 1.102,-6.192 c 0.112,-0.632 0.479,-1.558 2.331,-1.558 1.852,0 1.89,0.926 1.776,1.558 l -1.102,6.192 2.471,0 1.211,-6.809 c 0.294,-1.652 -1.303,-2.393 -3.851,-2.393"
         clip-path="url(#SVGID_2_)"
         id="path3932"
         style="fill-rule:evenodd" />
      <path
         d="m 128.813,8.627 c 0.134,-0.756 -0.361,-1.358 -1.118,-1.358 -0.756,0 -1.466,0.602 -1.6,1.358 -0.135,0.757 0.359,1.359 1.116,1.359 0.757,0 1.468,-0.602 1.602,-1.359 m -0.487,2.038 -2.47,0 -1.6,8.986 2.471,0 1.599,-8.986 z"
         clip-path="url(#SVGID_2_)"
         id="path3934"
         style="fill-rule:evenodd" />
      <path
         d="m 135.044,10.448 c -2.271,0 -3.86,0.695 -4.601,0.772 l -0.314,0.031 -1.494,8.399 2.471,0 1.102,-6.192 c 0.112,-0.632 0.479,-1.558 2.331,-1.558 1.852,0 1.889,0.926 1.776,1.558 l -1.102,6.192 2.47,0 1.212,-6.809 c 0.293,-1.652 -1.304,-2.393 -3.851,-2.393"
         clip-path="url(#SVGID_2_)"
         id="path3936"
         style="fill-rule:evenodd" />
      <path
         d="m 118.231,17.828 c 0.693,0 2.391,-0.246 2.579,-1.312 l 0.589,-3.304 c 0.192,-1.08 -1.064,-1.312 -2.113,-1.312 -1.235,0 -2.514,0.154 -3.014,2.964 -0.5,2.81 0.724,2.964 1.959,2.964 m 5.812,-6.716 -1.582,8.894 c -0.366,2.053 -3.045,2.701 -5.145,2.701 -0.198,0 -2.736,-0.004 -2.916,-0.015 l 0.229,-1.214 c 0.005,0.01 2.835,-0.006 3.138,-0.006 1.236,0 2.343,-0.402 2.672,-2.256 l 0.092,-0.508 c -0.618,0.262 -1.678,0.571 -2.836,0.571 -3.458,0 -4.458,-1.235 -3.894,-4.416 0.597,-3.35 2.27,-4.416 5.713,-4.416 2.1,0 3.343,0.479 3.822,0.556 l 0.707,0.109 z"
         clip-path="url(#SVGID_2_)"
         id="path3938"
         style="fill-rule:evenodd" />
    </g>
    <g
       id="g3940">
      <defs
         id="defs3942">
        <path
           d="m 0,13.174 c 0,5.439 4.411,9.849 9.852,9.849 5.441,0 9.852,-4.41 9.852,-9.849 0,-5.44 -4.41,-9.85 -9.852,-9.85 C 4.411,3.324 0,7.734 0,13.174"
           id="SVGID_3_" />
      </defs>
      <clipPath
         id="SVGID_4_">
        <use
           id="use3946"
           style="overflow:visible"
           x="0"
           y="0"
           width="322.85715"
           height="314.28571"
           xlink:href="#SVGID_3_" />
      </clipPath>
      <radialGradient
         cx="-239.9771"
         cy="410.8096"
         r="1"
         id="SVGID_5_"
         gradientUnits="userSpaceOnUse"
         gradientTransform="matrix(15.9689,0,0,-15.9662,3845.75,6566.58)">
        <stop
           id="stop3949"
           style="stop-color:#f6861f;stop-opacity:1"
           offset="0" />
        <stop
           id="stop3951"
           style="stop-color:#ed1c24;stop-opacity:1"
           offset="0.22660001" />
        <stop
           id="stop3953"
           style="stop-color:#b31217;stop-opacity:1"
           offset="0.58200002" />
        <stop
           id="stop3955"
           style="stop-color:#b31217;stop-opacity:1"
           offset="1" />
      </radialGradient>
      <rect
         width="19.702"
         height="19.698999"
         x="0.001"
         y="3.3239999"
         clip-path="url(#SVGID_4_)"
         id="rect3957"
         style="fill:url(#SVGID_5_)" />
    </g>
    <g
       id="g3961">
      <defs
         id="defs3963">
        <rect
           width="139.188"
           height="26.288"
           x="0.001"
           y="0.001"
           id="SVGID_6_" />
      </defs>
      <clipPath
         id="SVGID_7_">
        <use
           id="use3967"
           style="overflow:visible"
           x="0"
           y="0"
           width="322.85715"
           height="314.28571"
           xlink:href="#SVGID_6_" />
      </clipPath>
    </g>
    <g
       id="g3993">
      <defs
         id="defs3995">
        <path
           d="m 0.001,13.174 c 0,5.44 4.411,9.849 9.852,9.849 5.441,0 9.852,-4.409 9.852,-9.849 0,-5.44 -4.41,-9.85 -9.852,-9.85 -5.441,0 -9.852,4.41 -9.852,9.85"
           id="SVGID_8_" />
      </defs>
      <clipPath
         id="SVGID_9_">
        <use
           id="use3999"
           style="overflow:visible"
           x="0"
           y="0"
           width="322.85715"
           height="314.28571"
           xlink:href="#SVGID_8_" />
      </clipPath>
      <radialGradient
         cx="-239.97659"
         cy="410.8096"
         r="1"
         id="SVGID_10_"
         gradientUnits="userSpaceOnUse"
         gradientTransform="matrix(15.9689,0,0,-15.9662,3845.75,6566.58)">
        <stop
           id="stop4002"
           style="stop-color:#f6861f;stop-opacity:1"
           offset="0" />
        <stop
           id="stop4004"
           style="stop-color:#ed1c24;stop-opacity:1"
           offset="0.22660001" />
        <stop
           id="stop4006"
           style="stop-color:#b31217;stop-opacity:1"
           offset="0.58200002" />
        <stop
           id="stop4008"
           style="stop-color:#b31217;stop-opacity:1"
           offset="1" />
      </radialGradient>
    </g>
  </g>
</svg>
