<?xml version="1.0" encoding="UTF-8" standalone="no"?>
<!-- Created with Inkscape (http://www.inkscape.org/) -->
<svg
   xmlns:dc="http://purl.org/dc/elements/1.1/"
   xmlns:cc="http://web.resource.org/cc/"
   xmlns:rdf="http://www.w3.org/1999/02/22-rdf-syntax-ns#"
   xmlns:svg="http://www.w3.org/2000/svg"
   xmlns="http://www.w3.org/2000/svg"
   xmlns:sodipodi="http://inkscape.sourceforge.net/DTD/sodipodi-0.dtd"
   xmlns:inkscape="http://www.inkscape.org/namespaces/inkscape"
   version="1.0"
   width="132.86"
   height="155.10001"
   id="svg2"
   sodipodi:version="0.32"
   inkscape:version="0.43+devel"
   sodipodi:docname="Merki_framsoknarflokksins.svg"
   sodipodi:docbase="C:\Documents and Settings\aki\Desktop">
  <metadata
     id="metadata11">
    <rdf:RDF>
      <cc:Work
         rdf:about="">
        <dc:format>image/svg+xml</dc:format>
        <dc:type
           rdf:resource="http://purl.org/dc/dcmitype/StillImage" />
      </cc:Work>
    </rdf:RDF>
  </metadata>
  <sodipodi:namedview
     inkscape:window-height="536"
     inkscape:window-width="773"
     inkscape:pageshadow="2"
     inkscape:pageopacity="0.0"
     borderopacity="1.0"
     bordercolor="#666666"
     pagecolor="#ffffff"
     id="base"
     inkscape:zoom="2.4306898"
     inkscape:cx="-13.552304"
     inkscape:cy="90.316749"
     inkscape:window-x="22"
     inkscape:window-y="29"
     inkscape:current-layer="svg2" />
  <defs
     id="defs4" />
  <g
     id="layer1"
     transform="translate(-217.9584,-106.3938)">
    <g
       id="g2056">
      <path
         d="M 274.59779,258.50236 C 274.24617,257.93343 273.53468,254.47538 273.01671,250.81782 C 271.94465,243.24772 269.48212,239.33677 262.59804,234.27109 C 254.82896,228.55418 255.11907,230.82637 255.11907,175.69468 C 255.11907,142.81686 255.81607,125.83269 256.15926,126.01195 L 281.61907,139.31057 L 281.87708,198.60971 C 282.0806,245.38631 281.86942,258.07752 280.87708,258.70751 C 279.08513,259.84514 275.3523,259.72319 274.59779,258.50236 z "
         style="opacity:1;color:black;fill:#8ec83e;fill-opacity:1;fill-rule:nonzero;stroke:none;stroke-width:1;stroke-linecap:butt;stroke-linejoin:miter;marker:none;marker-start:none;marker-mid:none;marker-end:none;stroke-miterlimit:4;stroke-dasharray:none;stroke-dashoffset:0;stroke-opacity:1;visibility:visible;display:inline;overflow:visible"
         id="path2046" />
      <path
         d="M 287.36907,258.87451 C 286.38878,258.47895 286.11907,245.56827 286.11907,199.03923 L 286.11907,139.70834 L 291.13409,136.62256 C 293.89235,134.92539 296.32783,133.53679 296.54625,133.53679 C 296.76467,133.53679 300.12258,131.70385 304.00827,129.46358 C 307.89395,127.22332 311.53348,125.67488 312.09611,126.0226 C 312.77109,126.43976 313.11907,143.48985 313.11907,176.14547 C 313.11907,230.67139 313.25373,229.43361 306.89331,233.3702 C 299.36146,238.03181 295.11907,245.03427 295.11907,252.80467 C 295.11907,255.18734 294.57907,257.67679 293.91907,258.33679 C 292.70577,259.55009 289.6625,259.79993 287.36907,258.87451 z "
         style="opacity:1;color:black;fill:#8ec83e;fill-opacity:1;fill-rule:nonzero;stroke:none;stroke-width:1;stroke-linecap:butt;stroke-linejoin:miter;marker:none;marker-start:none;marker-mid:none;marker-end:none;stroke-miterlimit:4;stroke-dasharray:none;stroke-dashoffset:0;stroke-opacity:1;visibility:visible;display:inline;overflow:visible"
         id="path2044" />
      <path
         d="M 266.69812,257.21407 C 266.47152,256.48799 265.99434,254.5743 265.63774,252.96143 C 264.36114,247.18763 258.63468,243.03922 246.27339,238.93334 C 233.51099,234.69424 227.25794,231.53184 227.17372,225.55258 L 225.52358,108.39393 L 251.64061,123.40936 L 252.79861,229.69891 C 252.81747,231.43014 257.24044,234.70253 260.92318,237.38975 C 268.80193,243.13871 271.24893,246.811 271.46252,253.20642 C 271.60141,257.36517 271.36476,257.93004 269.3646,258.21407 C 268.12464,258.39014 266.92473,257.94014 266.69812,257.21407 z "
         style="fill:#034626"
         id="path1990" />
      <path
         d="M 301.72245,257.61486 C 301.94905,256.88878 302.42623,254.97509 302.78283,253.36222 C 304.05943,247.58842 309.78589,243.44001 322.14718,239.33413 C 334.90958,235.09503 339.7096,231.73225 341.24685,225.95337 C 342.38072,221.69091 343.97082,108.79472 342.89699,108.79472 C 341.57477,108.79472 320.39189,120.98088 319.18382,122.43652 C 318.31303,123.48576 317.86859,137.70559 317.52278,175.58189 C 317.13801,217.72519 316.78626,227.81379 315.62196,230.0997 C 314.83618,231.64244 311.18013,235.10332 307.49739,237.79054 C 299.61864,243.5395 297.17164,247.21179 296.95805,253.60721 C 296.81916,257.76596 297.05581,258.33083 299.05597,258.61486 C 300.29593,258.79093 301.49584,258.34093 301.72245,257.61486 z "
         style="fill:#034626"
         id="path2054" />
    </g>
  </g>
</svg>
