<?xml version="1.0" encoding="UTF-8" standalone="no"?>
<svg
   xmlns:dc="http://purl.org/dc/elements/1.1/"
   xmlns:cc="http://creativecommons.org/ns#"
   xmlns:rdf="http://www.w3.org/1999/02/22-rdf-syntax-ns#"
   xmlns:svg="http://www.w3.org/2000/svg"
   xmlns="http://www.w3.org/2000/svg"
   viewBox="0 0 603.9425 160.70975"
   height="160.70975"
   width="603.9425"
   xml:space="preserve"
   version="1.1"
   id="svg2"><metadata
     id="metadata8"><rdf:RDF><cc:Work
         rdf:about=""><dc:format>image/svg+xml</dc:format><dc:type
           rdf:resource="http://purl.org/dc/dcmitype/StillImage" /><dc:title></dc:title></cc:Work></rdf:RDF></metadata><defs
     id="defs6"><clipPath
       id="clipPath18"
       clipPathUnits="userSpaceOnUse"><path
         id="path20"
         d="m 8.42188,10 7601.10002,0 0,3061.08 -7601.10002,0 0,-3061.08 z" /></clipPath><clipPath
       id="clipPath28"
       clipPathUnits="userSpaceOnUse"><path
         style="clip-rule:evenodd"
         id="path30"
         d="m 1546.88,1410.22 c 26.82,-57.8 61.9,-94.92 135.16,-94.92 72.22,0 122.78,38.18 122.78,124.84 l 0,70.16 -2.06,0 c -21.66,-31.98 -72.22,-66.04 -141.36,-66.04 -137.22,0 -245.56,105.24 -245.56,288.9 0,183.66 116.6,288.9 243.5,288.9 73.26,0 120.72,-33.02 147.54,-68.08 l 2.06,0 0,52.6 113.5,0 0,-549.92 c 0,-163.02 -102.14,-244.54 -240.4,-244.54 -118.66,0 -193.98,60.88 -225.96,140.3 l 90.8,57.8 0,0 z m 257.94,386.92 c 0,60.88 -46.42,118.64 -125.88,118.64 -85.64,0 -145.48,-62.92 -145.48,-182.62 0,-119.68 58.82,-182.64 145.48,-182.64 76.36,0 125.88,52.64 125.88,114.54 l 0,132.08 0,0 z" /></clipPath><clipPath
       id="clipPath34"
       clipPathUnits="userSpaceOnUse"><path
         id="path36"
         d="m 0,0 7620,0 0,3080 L 0,3080 0,0 Z" /></clipPath><clipPath
       id="clipPath44"
       clipPathUnits="userSpaceOnUse"><path
         style="clip-rule:evenodd"
         id="path46"
         d="m 2498.06,1572.22 c -42.32,-68.1 -111.44,-127.96 -227,-127.96 -148.58,0 -256.92,111.44 -256.92,288.9 0,177.46 108.34,288.9 251.76,288.9 142.38,0 248.66,-109.36 248.66,-288.9 l 0,-35.08 -381.76,0 c 3.1,-88.74 49.54,-149.6 136.2,-149.6 83.58,0 120.72,55.7 144.46,92.86 l 84.6,-69.12 0,0 z m -98.02,214.6 c -4.14,73.26 -46.44,131.02 -134.14,131.02 -84.6,0 -127.94,-68.1 -132.06,-131.02 l 266.2,0 0,0 z" /></clipPath><clipPath
       id="clipPath50"
       clipPathUnits="userSpaceOnUse"><path
         id="path52"
         d="m 0,0 7620,0 0,3080 L 0,3080 0,0 Z" /></clipPath><clipPath
       id="clipPath60"
       clipPathUnits="userSpaceOnUse"><path
         style="clip-rule:evenodd"
         id="path62"
         d="m 2604.5,2006.58 113.5,0 0,-52.6 2.06,0 c 28.88,37.12 85.62,68.08 147.54,68.08 119.68,0 195,-75.32 195,-204.28 l 0,-358.04 -116.6,0 0,327.08 c 0,80.48 -28.88,126.9 -106.26,126.9 -72.22,0 -117.62,-44.36 -117.62,-114.52 l 0,-339.46 -117.62,0 0,546.84" /></clipPath><clipPath
       id="clipPath66"
       clipPathUnits="userSpaceOnUse"><path
         id="path68"
         d="m 0,0 7620,0 0,3080 L 0,3080 0,0 Z" /></clipPath><clipPath
       id="clipPath76"
       clipPathUnits="userSpaceOnUse"><path
         style="clip-rule:evenodd"
         id="path78"
         d="m 3631.3,1572.22 c -42.32,-68.1 -111.44,-127.96 -227,-127.96 -148.58,0 -256.92,111.44 -256.92,288.9 0,177.46 108.34,288.9 251.78,288.9 142.36,0 248.64,-109.36 248.64,-288.9 l 0,-35.08 -381.76,0 c 3.1,-88.74 49.54,-149.6 136.2,-149.6 83.58,0 120.72,55.7 144.46,92.86 l 84.6,-69.12 0,0 z m -98.02,214.6 c -4.14,73.26 -46.44,131.02 -134.12,131.02 -84.62,0 -127.96,-68.1 -132.08,-131.02 l 266.2,0 0,0 z" /></clipPath><clipPath
       id="clipPath82"
       clipPathUnits="userSpaceOnUse"><path
         id="path84"
         d="m 0,0 7620,0 0,3080 L 0,3080 0,0 Z" /></clipPath><clipPath
       id="clipPath92"
       clipPathUnits="userSpaceOnUse"><path
         style="clip-rule:evenodd"
         id="path94"
         d="m 3740.72,2006.58 111.42,0 0,-57.78 2.06,0 c 21.68,42.3 67.08,68.1 113.5,68.1 19.6,0 36.12,-5.16 48.5,-10.32 l -18.58,-114.52 c -11.34,3.1 -24.76,8.26 -43.32,8.26 -61.92,0 -95.96,-41.28 -95.96,-136.2 l 0,-304.38 -117.62,0 0,546.84" /></clipPath><clipPath
       id="clipPath98"
       clipPathUnits="userSpaceOnUse"><path
         id="path100"
         d="m 0,0 7620,0 0,3080 L 0,3080 0,0 Z" /></clipPath><clipPath
       id="clipPath108"
       clipPathUnits="userSpaceOnUse"><path
         style="clip-rule:evenodd"
         id="path110"
         d="m 4031.2,1733.16 c 0,186.76 118.66,288.9 253.82,288.9 134.14,0 251.76,-102.14 251.76,-288.9 0,-186.74 -110.4,-288.9 -251.76,-288.9 -142.4,0 -253.82,102.16 -253.82,288.9 l 0,0 z m 390.02,0 c 0,118.66 -56.76,182.62 -136.2,182.62 -79.46,0 -137.22,-61.9 -137.22,-182.62 0,-121.76 56.74,-182.64 137.22,-182.64 79.44,0 136.2,64 136.2,182.64 l 0,0 z" /></clipPath><clipPath
       id="clipPath114"
       clipPathUnits="userSpaceOnUse"><path
         id="path116"
         d="m 0,0 7620,0 0,3080 L 0,3080 0,0 Z" /></clipPath><clipPath
       id="clipPath124"
       clipPathUnits="userSpaceOnUse"><path
         style="clip-rule:evenodd"
         id="path126"
         d="m 4702.44,1668.16 c 9.28,-80.48 54.68,-124.86 132.08,-124.86 74.28,0 115.56,27.88 115.56,70.18 0,43.34 -34.06,53.64 -150.64,86.66 -123.82,35.08 -183.66,77.4 -183.66,159.94 0,82.54 70.16,161.98 201.2,161.98 131.02,0 199.12,-68.08 223.9,-159.92 l -99.06,-28.9 c -17.54,51.6 -49.52,90.8 -124.84,90.8 -61.92,0 -93.9,-28.88 -93.9,-58.8 0,-36.12 22.7,-45.4 160.96,-84.62 138.26,-39.2 172.3,-89.76 172.3,-169.22 0,-76.34 -62.94,-167.14 -217.7,-167.14 -160.96,0 -230.1,99.04 -243.5,198.1 l 107.3,25.8" /></clipPath><clipPath
       id="clipPath130"
       clipPathUnits="userSpaceOnUse"><path
         id="path132"
         d="m 0,0 7620,0 0,3080 L 0,3080 0,0 Z" /></clipPath><clipPath
       id="clipPath140"
       clipPathUnits="userSpaceOnUse"><path
         style="clip-rule:evenodd"
         id="path142"
         d="m 5141.14,2212.94 121.74,0 0,-116.58 -121.74,0 0,116.58 z m 2.06,-206.36 117.62,0 0,-546.84 -117.62,0 0,546.84 z" /></clipPath><clipPath
       id="clipPath146"
       clipPathUnits="userSpaceOnUse"><path
         id="path148"
         d="m 0,0 7620,0 0,3080 L 0,3080 0,0 Z" /></clipPath><clipPath
       id="clipPath156"
       clipPathUnits="userSpaceOnUse"><path
         style="clip-rule:evenodd"
         id="path158"
         d="m 5414.72,1905.48 -82.54,0 0,101.1 85.64,0 0,134.14 111.44,0 0,-134.14 137.22,0 0,-101.1 -136.2,0 0,-250.72 c 0,-56.76 11.36,-81.52 71.2,-81.52 l 43.34,0 0,-113.5 -52.62,0 c -137.24,0 -177.48,61.9 -177.48,182.62 l 0,263.12" /></clipPath><clipPath
       id="clipPath162"
       clipPathUnits="userSpaceOnUse"><path
         id="path164"
         d="m 0,0 7620,0 0,3080 L 0,3080 0,0 Z" /></clipPath><clipPath
       id="clipPath172"
       clipPathUnits="userSpaceOnUse"><path
         style="clip-rule:evenodd"
         id="path174"
         d="m 5925.46,1484.5 -212.54,522.08 123.82,0 143.42,-376.6 2.06,0 143.42,376.6 121.74,0 -311.58,-778.98 -113.5,0 103.16,256.9" /></clipPath><clipPath
       id="clipPath178"
       clipPathUnits="userSpaceOnUse"><path
         id="path180"
         d="m 0,0 7620,0 0,3080 L 0,3080 0,0 Z" /></clipPath><clipPath
       id="clipPath188"
       clipPathUnits="userSpaceOnUse"><path
         style="clip-rule:evenodd"
         id="path190"
         d="m 3405.52,1290.24 43.32,0 0,-95.38 0.78,0 c 3.42,4.16 20.52,25.06 52.82,25.06 49.4,0 86.66,-41.8 86.66,-106.42 0,-64.6 -34.2,-106.42 -87.42,-106.42 -34.58,0 -52.06,21.66 -55.1,25.08 l -0.78,0 0,-19.38 -40.28,0 0,277.46 0,0 z m 43.32,-200.3 c 0,-23.18 17.5,-43.72 46.38,-43.72 31.94,0 50.56,23.18 50.56,67.28 0,44.1 -18.62,67.28 -50.56,67.28 -29.64,0 -46.38,-22.04 -46.38,-45.24 l 0,-45.6 0,0 z" /></clipPath><clipPath
       id="clipPath194"
       clipPathUnits="userSpaceOnUse"><path
         id="path196"
         d="m 0,0 7620,0 0,3080 L 0,3080 0,0 Z" /></clipPath><clipPath
       id="clipPath204"
       clipPathUnits="userSpaceOnUse"><path
         style="clip-rule:evenodd"
         id="path206"
         d="m 3679.12,1021.9 -78.3,192.34 45.62,0 52.82,-138.74 0.76,0 52.84,138.74 44.84,0 -114.78,-286.978 -41.8,0 38,94.638" /></clipPath><clipPath
       id="clipPath210"
       clipPathUnits="userSpaceOnUse"><path
         id="path212"
         d="m 0,0 7620,0 0,3080 L 0,3080 0,0 Z" /></clipPath><clipPath
       id="clipPath220"
       clipPathUnits="userSpaceOnUse"><path
         id="path222"
         d="m 3932.14,1010.04 65.418,0 0,244.762 -65.418,0 0,-244.762 z" /></clipPath><clipPath
       id="clipPath230"
       clipPathUnits="userSpaceOnUse"><path
         style="clip-rule:evenodd"
         id="path232"
         d="m 4164.76,1141.5 -66.08,113.3 -68.7,0 0,-244.76 62.08,0 0,127.18 1,-0.02 74.98,-127.16 60.12,0 0,244.76 -62.42,0 0,-113.3 -0.98,0" /></clipPath><clipPath
       id="clipPath236"
       clipPathUnits="userSpaceOnUse"><path
         id="path238"
         d="m 0,0 7620,0 0,3080 L 0,3080 0,0 Z" /></clipPath><clipPath
       id="clipPath246"
       clipPathUnits="userSpaceOnUse"><path
         style="clip-rule:evenodd"
         id="path248"
         d="m 4260.8,1254.8 0,-244.76 82.24,0 c 77.62,0 114.28,19.5 114.28,122.54 0,101.08 -37.3,122.22 -115.26,122.22 l -81.26,0 0,0 z m 130.14,-122.54 c 0,-61.78 -17.5,-65.72 -41.94,-65.72 l -22.8,0 0,128.8 20.14,0 c 27.76,0 44.6,-1.64 44.6,-63.08 l 0,0 z" /></clipPath><clipPath
       id="clipPath252"
       clipPathUnits="userSpaceOnUse"><path
         id="path254"
         d="m 0,0 7620,0 0,3080 L 0,3080 0,0 Z" /></clipPath><clipPath
       id="clipPath262"
       clipPathUnits="userSpaceOnUse"><path
         id="path264"
         d="m 4480.76,1010.04 65.3984,0 0,244.762 -65.3984,0 0,-244.762 z" /></clipPath><clipPath
       id="clipPath272"
       clipPathUnits="userSpaceOnUse"><path
         style="clip-rule:evenodd"
         id="path274"
         d="m 5086.52,1257.78 c -91.16,0 -107.34,-59.78 -107.34,-125.52 0,-65.4 16.18,-125.18 107.34,-125.18 90.84,0 107.02,59.78 107.02,125.18 0,65.74 -15.86,125.52 -107.02,125.52 l 0,0 z m 0,-192.9 c -36,0 -40.96,24.78 -40.96,65.06 0,39.98 4.96,64.76 40.96,64.76 35.68,0 40.64,-24.78 40.64,-64.76 0,-40.28 -4.96,-65.06 -40.64,-65.06 l 0,0 z" /></clipPath><clipPath
       id="clipPath278"
       clipPathUnits="userSpaceOnUse"><path
         id="path280"
         d="m 0,0 7620,0 0,3080 L 0,3080 0,0 Z" /></clipPath><clipPath
       id="clipPath288"
       clipPathUnits="userSpaceOnUse"><path
         style="clip-rule:evenodd"
         id="path290"
         d="m 5544.98,1257.78 c -91.18,0 -107.38,-59.78 -107.38,-125.52 0,-65.4 16.2,-125.18 107.38,-125.18 90.82,0 107,59.78 107,125.18 0,65.74 -15.84,125.52 -107,125.52 l 0,0 z m 0,-192.9 c -36,0 -40.98,24.78 -40.98,65.06 0,39.98 4.98,64.76 40.98,64.76 35.64,0 40.62,-24.78 40.62,-64.76 0,-40.28 -4.98,-65.06 -40.62,-65.06 l 0,0 z" /></clipPath><clipPath
       id="clipPath294"
       clipPathUnits="userSpaceOnUse"><path
         id="path296"
         d="m 0,0 7620,0 0,3080 L 0,3080 0,0 Z" /></clipPath><clipPath
       id="clipPath304"
       clipPathUnits="userSpaceOnUse"><path
         style="clip-rule:evenodd"
         id="path306"
         d="m 4853.76,1104.5 42.2,0 0,-4.28 c 0,-27.04 0.84,-38.98 -31.38,-38.98 -30.06,0 -40.32,13.88 -40.32,69.04 0,57.48 17.18,64.42 42.94,64.42 19.16,0 32.72,-4.96 43.94,-11.26 l 35.02,54.52 c -18.5,11.9 -45.58,19.82 -75.98,19.82 -84.54,0 -111.64,-40.64 -111.64,-125.52 0,-73.98 19.82,-125.18 100.08,-125.18 14.22,0 26.44,0.96 36.96,2.96 l 60.16,0 0,147.64 -94.76,0 -7.22,-53.18" /></clipPath><clipPath
       id="clipPath310"
       clipPathUnits="userSpaceOnUse"><path
         id="path312"
         d="m 0,0 7620,0 0,3080 L 0,3080 0,0 Z" /></clipPath><clipPath
       id="clipPath320"
       clipPathUnits="userSpaceOnUse"><path
         style="clip-rule:evenodd"
         id="path322"
         d="m 5312.2,1104.5 42.2,0 0,-4.28 c 0,-27.04 0.84,-38.98 -31.38,-38.98 -30.06,0 -40.32,13.88 -40.32,69.04 0,57.48 17.18,64.42 42.96,64.42 19.14,0 32.7,-4.96 43.92,-11.26 l 35.02,54.52 c -18.5,11.9 -45.58,19.82 -75.98,19.82 -84.54,0 -111.64,-40.64 -111.64,-125.52 0,-73.98 19.82,-125.18 100.08,-125.18 14.22,0 26.44,0.96 36.96,2.96 l 60.16,0 0,147.64 -94.76,0 -7.22,-53.18" /></clipPath><clipPath
       id="clipPath326"
       clipPathUnits="userSpaceOnUse"><path
         id="path328"
         d="m 0,0 7620,0 0,3080 L 0,3080 0,0 Z" /></clipPath><clipPath
       id="clipPath336"
       clipPathUnits="userSpaceOnUse"><path
         style="clip-rule:evenodd"
         id="path338"
         d="m 4741.32,1195.02 0,59.78 -162.52,0 0,-244.76 162.52,0 0,58.14 -98.42,0 0,36.68 64.64,0 7.9,58.1 -72.54,0 0,32.06 98.42,0" /></clipPath><clipPath
       id="clipPath342"
       clipPathUnits="userSpaceOnUse"><path
         id="path344"
         d="m 0,0 7620,0 0,3080 L 0,3080 0,0 Z" /></clipPath></defs><g
     transform="matrix(1.25,0,0,-1.25,-176.98,276.6175)"
     id="g10"><g
       transform="scale(0.1,0.1)"
       id="g12"><g
         id="g3674"><g
           id="g24"><g
             id="g26"
             clip-path="url(#clipPath28)"><g
               id="g32"
               clip-path="url(#clipPath34)"><path
                 d="m 1315.84,1112.12 706.602,0 0,1009.94 -706.602,0 0,-1009.94 z"
                 style="fill:#fa7259;fill-opacity:1;fill-rule:nonzero;stroke:none"
                 id="path38" /></g></g></g><g
           id="g40"><g
             id="g42"
             clip-path="url(#clipPath44)"><g
               id="g48"
               clip-path="url(#clipPath50)"><path
                 d="m 1914.14,1344.26 700.418,0 0,777.797 -700.418,0 0,-777.797 z"
                 style="fill:#fa7259;fill-opacity:1;fill-rule:nonzero;stroke:none"
                 id="path54" /></g></g></g><g
           id="g56"><g
             id="g58"
             clip-path="url(#clipPath60)"><g
               id="g64"
               clip-path="url(#clipPath66)"><path
                 d="m 2504.5,1359.74 658.102,0 0,762.32 -658.102,0 0,-762.32 z"
                 style="fill:#fa7259;fill-opacity:1;fill-rule:nonzero;stroke:none"
                 id="path70" /></g></g></g><g
           id="g72"><g
             id="g74"
             clip-path="url(#clipPath76)"><g
               id="g80"
               clip-path="url(#clipPath82)"><path
                 d="m 3047.38,1344.26 700.422,0 0,777.797 -700.422,0 0,-777.797 z"
                 style="fill:#fa7259;fill-opacity:1;fill-rule:nonzero;stroke:none"
                 id="path86" /></g></g></g><g
           id="g88"><g
             id="g90"
             clip-path="url(#clipPath92)"><g
               id="g96"
               clip-path="url(#clipPath98)"><path
                 d="m 3640.72,1359.74 475.48,0 0,757.16 -475.48,0 0,-757.16 z"
                 style="fill:#fa7259;fill-opacity:1;fill-rule:nonzero;stroke:none"
                 id="path102" /></g></g></g><g
           id="g104"><g
             id="g106"
             clip-path="url(#clipPath108)"><g
               id="g112"
               clip-path="url(#clipPath114)"><path
                 d="m 3931.2,1344.26 705.582,0 0,777.797 -705.582,0 0,-777.797 z"
                 style="fill:#fa7259;fill-opacity:1;fill-rule:nonzero;stroke:none"
                 id="path118" /></g></g></g><g
           id="g120"><g
             id="g122"
             clip-path="url(#clipPath124)"><g
               id="g128"
               clip-path="url(#clipPath130)"><path
                 d="m 4495.14,1344.26 661.199,0 0,777.797 -661.199,0 0,-777.797 z"
                 style="fill:#fa7259;fill-opacity:1;fill-rule:nonzero;stroke:none"
                 id="path134" /></g></g></g><g
           id="g136"><g
             id="g138"
             clip-path="url(#clipPath140)"><g
               id="g144"
               clip-path="url(#clipPath146)"><path
                 d="m 5041.14,1359.74 321.738,0 0,953.203 -321.738,0 0,-953.203 z"
                 style="fill:#fa7259;fill-opacity:1;fill-rule:nonzero;stroke:none"
                 id="path150" /></g></g></g><g
           id="g152"><g
             id="g154"
             clip-path="url(#clipPath156)"><g
               id="g160"
               clip-path="url(#clipPath162)"><path
                 d="m 5232.18,1359.74 534.301,0 0,880.98 -534.301,0 0,-880.98 z"
                 style="fill:#fa7259;fill-opacity:1;fill-rule:nonzero;stroke:none"
                 id="path166" /></g></g></g><g
           id="g168"><g
             id="g170"
             clip-path="url(#clipPath172)"><g
               id="g176"
               clip-path="url(#clipPath178)"><path
                 d="m 5612.92,1127.6 734.457,0 0,978.98 -734.457,0 0,-978.98 z"
                 style="fill:#fa7259;fill-opacity:1;fill-rule:nonzero;stroke:none"
                 id="path182" /></g></g></g><g
           id="g184"><g
             id="g186"
             clip-path="url(#clipPath188)"><g
               id="g192"
               clip-path="url(#clipPath194)"><path
                 d="m 3305.52,907.078 383.582,0 0,483.16 -383.582,0 0,-483.16 z"
                 style="fill:#c2c3c4;fill-opacity:1;fill-rule:nonzero;stroke:none"
                 id="path198" /></g></g></g><g
           id="g200"><g
             id="g202"
             clip-path="url(#clipPath204)"><g
               id="g208"
               clip-path="url(#clipPath210)"><path
                 d="m 3500.82,827.262 396.879,0 0,486.977 -396.879,0 0,-486.977 z"
                 style="fill:#c2c3c4;fill-opacity:1;fill-rule:nonzero;stroke:none"
                 id="path214" /></g></g></g><g
           id="g216"><g
             id="g218"
             clip-path="url(#clipPath220)"><path
               d="m 3832.14,910.039 265.418,0 0,444.762 -265.418,0 0,-444.762 z"
               style="fill:#c2c3c4;fill-opacity:1;fill-rule:nonzero;stroke:none"
               id="path224" /></g></g><g
           id="g226"><g
             id="g228"
             clip-path="url(#clipPath230)"><g
               id="g234"
               clip-path="url(#clipPath236)"><path
                 d="m 3929.98,910.039 398.18,0 0,444.762 -398.18,0 0,-444.762 z"
                 style="fill:#c2c3c4;fill-opacity:1;fill-rule:nonzero;stroke:none"
                 id="path240" /></g></g></g><g
           id="g242"><g
             id="g244"
             clip-path="url(#clipPath246)"><g
               id="g250"
               clip-path="url(#clipPath252)"><path
                 d="m 4160.8,910.039 396.52,0 0,444.762 -396.52,0 0,-444.762 z"
                 style="fill:#c2c3c4;fill-opacity:1;fill-rule:nonzero;stroke:none"
                 id="path256" /></g></g></g><g
           id="g258"><g
             id="g260"
             clip-path="url(#clipPath262)"><path
               d="m 4380.76,910.039 265.398,0 0,444.762 -265.398,0 0,-444.762 z"
               style="fill:#c2c3c4;fill-opacity:1;fill-rule:nonzero;stroke:none"
               id="path266" /></g></g><g
           id="g268"><g
             id="g270"
             clip-path="url(#clipPath272)"><g
               id="g276"
               clip-path="url(#clipPath278)"><path
                 d="m 4879.18,907.078 414.359,0 0,450.703 -414.359,0 0,-450.703 z"
                 style="fill:#c2c3c4;fill-opacity:1;fill-rule:nonzero;stroke:none"
                 id="path282" /></g></g></g><g
           id="g284"><g
             id="g286"
             clip-path="url(#clipPath288)"><g
               id="g292"
               clip-path="url(#clipPath294)"><path
                 d="m 5337.6,907.078 414.379,0 0,450.703 -414.379,0 0,-450.703 z"
                 style="fill:#c2c3c4;fill-opacity:1;fill-rule:nonzero;stroke:none"
                 id="path298" /></g></g></g><g
           id="g300"><g
             id="g302"
             clip-path="url(#clipPath304)"><g
               id="g308"
               clip-path="url(#clipPath310)"><path
                 d="m 4658.54,907.078 397.203,0 0,450.703 -397.203,0 0,-450.703 z"
                 style="fill:#c2c3c4;fill-opacity:1;fill-rule:nonzero;stroke:none"
                 id="path314" /></g></g></g><g
           id="g316"><g
             id="g318"
             clip-path="url(#clipPath320)"><g
               id="g324"
               clip-path="url(#clipPath326)"><path
                 d="m 5116.98,907.078 397.199,0 0,450.703 -397.199,0 0,-450.703 z"
                 style="fill:#c2c3c4;fill-opacity:1;fill-rule:nonzero;stroke:none"
                 id="path330" /></g></g></g><g
           id="g332"><g
             id="g334"
             clip-path="url(#clipPath336)"><g
               id="g340"
               clip-path="url(#clipPath342)"><path
                 d="m 4478.8,910.039 362.52,0 0,444.762 -362.52,0 0,-444.762 z"
                 style="fill:#c2c3c4;fill-opacity:1;fill-rule:nonzero;stroke:none"
                 id="path346" /></g></g></g></g></g></g></svg>