<?xml version="1.0" encoding="UTF-8" standalone="no"?>
<!-- Created with Inkscape (http://www.inkscape.org/) -->

<svg
   xmlns:dc="http://purl.org/dc/elements/1.1/"
   xmlns:cc="http://creativecommons.org/ns#"
   xmlns:rdf="http://www.w3.org/1999/02/22-rdf-syntax-ns#"
   xmlns:svg="http://www.w3.org/2000/svg"
   xmlns="http://www.w3.org/2000/svg"
   xmlns:sodipodi="http://sodipodi.sourceforge.net/DTD/sodipodi-0.dtd"
   xmlns:inkscape="http://www.inkscape.org/namespaces/inkscape"
   width="19.608801mm"
   height="38.150799mm"
   viewBox="0 0 69.480003 135.18"
   id="svg2"
   version="1.1"
   inkscape:version="0.91 r13725"
   sodipodi:docname="qMark.svg">
  <defs
     id="defs4" />
  <sodipodi:namedview
     id="base"
     pagecolor="#7e7e7e"
     bordercolor="#666666"
     borderopacity="1.0"
     inkscape:pageopacity="0"
     inkscape:pageshadow="2"
     inkscape:zoom="0.35"
     inkscape:cx="213.35714"
     inkscape:cy="-71.585725"
     inkscape:document-units="px"
     inkscape:current-layer="layer1"
     showgrid="false"
     fit-margin-top="0"
     fit-margin-left="0"
     fit-margin-right="0"
     fit-margin-bottom="0"
     inkscape:window-width="1920"
     inkscape:window-height="1028"
     inkscape:window-x="0"
     inkscape:window-y="26"
     inkscape:window-maximized="1" />
  <metadata
     id="metadata7">
    <rdf:RDF>
      <cc:Work
         rdf:about="">
        <dc:format>image/svg+xml</dc:format>
        <dc:type
           rdf:resource="http://purl.org/dc/dcmitype/StillImage" />
        <dc:title></dc:title>
      </cc:Work>
    </rdf:RDF>
  </metadata>
  <g
     inkscape:label="Layer 1"
     inkscape:groupmode="layer"
     id="layer1"
     transform="translate(-167.35715,-325.59648)">
    <g
       style="font-style:normal;font-weight:normal;font-size:180px;line-height:1000%;font-family:sans-serif;letter-spacing:0px;word-spacing:0px;fill:#000000;fill-opacity:1;stroke:none;stroke-width:1px;stroke-linecap:butt;stroke-linejoin:miter;stroke-opacity:1"
       id="text3352">
      <path
         d="m 201.91715,423.69648 c -0.18,-17.64 1.8,-22.5 13.32,-32.4 17.64,-15.66 21.6,-21.78 21.6,-34.38 0,-18.72 -13.86,-31.32 -34.38,-31.32 -20.34,0 -35.1,11.16 -35.1,26.64 0,7.92 5.04,13.86 11.7,13.86 5.76,0 10.26,-4.32 10.26,-9.9 0,-3.6 -1.8,-6.66 -5.22,-9.54 -2.7,-2.16 -2.88,-2.52 -2.88,-3.96 0,-4.68 7.92,-9 16.56,-9 12.78,0 20.16,8.28 20.16,22.14 0,7.38 -2.16,14.22 -5.76,19.44 -13.32,18.18 -13.32,18.18 -15.66,24.48 -1.8,5.04 -2.52,9.72 -2.52,18.18 l 0,5.76 7.92,0 z m -4.32,14.58 c -6.3,0 -11.34,5.04 -11.34,11.16 0,6.3 5.04,11.34 11.16,11.34 6.3,0 11.34,-5.04 11.34,-11.34 0,-6.12 -5.04,-11.16 -11.16,-11.16 z"
         style="font-style:normal;font-variant:normal;font-weight:500;font-stretch:normal;font-family:'Century Schoolbook L';-inkscape-font-specification:'Century Schoolbook L Medium';fill:#ffffff"
         id="path3357"
         inkscape:connector-curvature="0" />
    </g>
  </g>
</svg>
