<?xml version="1.0" encoding="UTF-8" standalone="no"?>
<svg
   xmlns:dc="http://purl.org/dc/elements/1.1/"
   xmlns:cc="http://creativecommons.org/ns#"
   xmlns:rdf="http://www.w3.org/1999/02/22-rdf-syntax-ns#"
   xmlns:svg="http://www.w3.org/2000/svg"
   xmlns="http://www.w3.org/2000/svg"
   xmlns:sodipodi="http://sodipodi.sourceforge.net/DTD/sodipodi-0.dtd"
   xmlns:inkscape="http://www.inkscape.org/namespaces/inkscape"
   version="1.1"
   x="0px"
   y="0px"
   viewBox="0 0 70.800003 70.800003"
   enable-background="new 0 0 100 100"
   xml:space="preserve"
   id="svg2"
   inkscape:version="0.91 r13725"
   sodipodi:docname="sad.svg"
   width="70.800003"
   height="70.800003"><metadata
     id="metadata26"><rdf:RDF><cc:Work
         rdf:about=""><dc:format>image/svg+xml</dc:format><dc:type
           rdf:resource="http://purl.org/dc/dcmitype/StillImage" /><dc:title /></cc:Work></rdf:RDF></metadata><defs
     id="defs24" /><sodipodi:namedview
     pagecolor="#ffffff"
     bordercolor="#666666"
     borderopacity="1"
     objecttolerance="10"
     gridtolerance="10"
     guidetolerance="10"
     inkscape:pageopacity="0"
     inkscape:pageshadow="2"
     inkscape:window-width="640"
     inkscape:window-height="480"
     id="namedview22"
     showgrid="false"
     fit-margin-top="0"
     fit-margin-left="0"
     fit-margin-right="0"
     fit-margin-bottom="0"
     inkscape:zoom="1.888"
     inkscape:cx="35.4"
     inkscape:cy="22.9"
     inkscape:window-x="0"
     inkscape:window-y="26"
     inkscape:window-maximized="0"
     inkscape:current-layer="svg2" /><g
     id="g4"
     transform="translate(-14.6,-14.6)"
     style="fill:#ff0000"><g
       id="g6"
       style="fill:#ff0000"><path
         d="M 50,85.4 C 30.5,85.4 14.6,69.5 14.6,50 14.6,30.5 30.5,14.6 50,14.6 69.5,14.6 85.4,30.5 85.4,50 85.4,69.5 69.5,85.4 50,85.4 Z M 50,19.6 C 33.3,19.6 19.6,33.2 19.6,50 19.6,66.8 33.3,80.4 50,80.4 66.7,80.4 80.4,66.7 80.4,50 80.4,33.3 66.7,19.6 50,19.6 Z"
         id="path8"
         inkscape:connector-curvature="0"
         style="fill:#ff0000" /></g><g
       id="g10"
       style="fill:#ff0000"><path
         d="m 50,55.2 c 10.3,0 16.3,8.1 16.5,8.4 0.8,1.1 0.6,2.7 -0.6,3.5 -1.1,0.8 -2.7,0.6 -3.5,-0.6 -0.1,-0.1 -4.8,-6.3 -12.5,-6.3 -7.7,0 -12.4,6.3 -12.5,6.3 -0.8,1.1 -2.4,1.4 -3.5,0.5 -1.1,-0.8 -1.4,-2.4 -0.6,-3.5 0.4,-0.3 6.4,-8.3 16.7,-8.3 z"
         id="path12"
         inkscape:connector-curvature="0"
         style="fill:#ff0000" /></g><circle
       cx="37.700001"
       cy="42"
       r="4.1999998"
       id="circle14"
       style="fill:#ff0000" /><circle
       cx="62.299999"
       cy="42"
       r="4.1999998"
       id="circle16"
       style="fill:#ff0000" /></g></svg>