<?xml version="1.0" encoding="UTF-8" standalone="no"?>
<!-- Created with Inkscape (http://www.inkscape.org/) -->

<svg
   xmlns:dc="http://purl.org/dc/elements/1.1/"
   xmlns:cc="http://creativecommons.org/ns#"
   xmlns:rdf="http://www.w3.org/1999/02/22-rdf-syntax-ns#"
   xmlns:svg="http://www.w3.org/2000/svg"
   xmlns="http://www.w3.org/2000/svg"
   xmlns:sodipodi="http://sodipodi.sourceforge.net/DTD/sodipodi-0.dtd"
   xmlns:inkscape="http://www.inkscape.org/namespaces/inkscape"
   width="19.981333mm"
   height="19.981333mm"
   viewBox="0 0 70.799998 70.799998"
   id="svg3381"
   version="1.1"
   inkscape:version="0.91 r13725"
   sodipodi:docname="confused.svg">
  <defs
     id="defs3383" />
  <sodipodi:namedview
     id="base"
     pagecolor="#c5c5c5"
     bordercolor="#666666"
     borderopacity="1.0"
     inkscape:pageopacity="1"
     inkscape:pageshadow="2"
     inkscape:zoom="4.1027778"
     inkscape:cx="45.714286"
     inkscape:cy="5.7142857"
     inkscape:document-units="px"
     inkscape:current-layer="layer1"
     showgrid="false"
     fit-margin-top="0"
     fit-margin-left="0"
     fit-margin-right="0"
     fit-margin-bottom="0"
     inkscape:window-width="1920"
     inkscape:window-height="1028"
     inkscape:window-x="0"
     inkscape:window-y="26"
     inkscape:window-maximized="1" />
  <metadata
     id="metadata3386">
    <rdf:RDF>
      <cc:Work
         rdf:about="">
        <dc:format>image/svg+xml</dc:format>
        <dc:type
           rdf:resource="http://purl.org/dc/dcmitype/StillImage" />
        <dc:title />
      </cc:Work>
    </rdf:RDF>
  </metadata>
  <g
     inkscape:label="Layer 1"
     inkscape:groupmode="layer"
     id="layer1"
     transform="translate(903.97143,337.32351)">
    <g
       transform="translate(-918.57143,-351.92351)"
       id="g4"
       style="fill:#6c5d53">
      <g
         id="g6"
         style="fill:#6c5d53">
        <path
           inkscape:connector-curvature="0"
           d="M 50,85.4 C 30.5,85.4 14.6,69.5 14.6,50 14.6,30.5 30.5,14.6 50,14.6 69.5,14.6 85.4,30.5 85.4,50 85.4,69.5 69.5,85.4 50,85.4 Z M 50,19.6 C 33.3,19.6 19.6,33.2 19.6,50 19.6,66.8 33.3,80.4 50,80.4 66.7,80.4 80.4,66.7 80.4,50 80.4,33.3 66.7,19.6 50,19.6 Z"
           id="path8"
           style="fill:#6c5d53" />
      </g>
      <circle
         cx="37.700001"
         cy="49.400002"
         r="4.1999998"
         id="circle10"
         style="fill:#6c5d53" />
      <circle
         cx="62.299999"
         cy="49.400002"
         r="4.1999998"
         id="circle12"
         style="fill:#6c5d53" />
      <g
         id="g14"
         style="fill:#6c5d53">
        <path
           inkscape:connector-curvature="0"
           d="m 69.3,40.3 c -0.4,0.2 -0.8,0.3 -1.3,0.3 l -11.5,0 c -1.4,0 -2.5,-1.1 -2.5,-2.5 0,-1.4 1.1,-2.5 2.5,-2.5 l 11.5,0 c 1.4,0 2.5,1.1 2.5,2.5 0,0.9 -0.5,1.7 -1.2,2.2 z"
           id="path16"
           style="fill:#6c5d53" />
      </g>
      <g
         id="g18"
         style="fill:#6c5d53">
        <path
           inkscape:connector-curvature="0"
           d="m 32.8,41.9 c -0.9,0 -1.7,-0.4 -2.2,-1.2 -0.7,-1.2 -0.3,-2.7 0.9,-3.4 l 9.9,-5.8 c 1.2,-0.7 2.7,-0.3 3.4,0.9 0.7,1.2 0.3,2.7 -0.9,3.4 L 34,41.6 c -0.4,0.2 -0.8,0.3 -1.2,0.3 z"
           id="path20"
           style="fill:#6c5d53" />
      </g>
      <g
         id="g22"
         style="fill:#6c5d53">
        <path
           inkscape:connector-curvature="0"
           d="m 59.2,69.4 -18.4,0 c -1.4,0 -2.5,-1.1 -2.5,-2.5 0,-1.4 1.1,-2.5 2.5,-2.5 l 18.3,0 c 1.4,0 2.5,1.1 2.5,2.5 0,1.4 -1.1,2.5 -2.4,2.5 z"
           id="path24"
           style="fill:#6c5d53" />
      </g>
    </g>
  </g>
</svg>
