<?xml version="1.0" encoding="UTF-8" standalone="no"?>
<svg
   xmlns:dc="http://purl.org/dc/elements/1.1/"
   xmlns:cc="http://creativecommons.org/ns#"
   xmlns:rdf="http://www.w3.org/1999/02/22-rdf-syntax-ns#"
   xmlns:svg="http://www.w3.org/2000/svg"
   xmlns="http://www.w3.org/2000/svg"
   version="1.1"
   id="svg4144"
   viewBox="0 0 611.04362 311.23586"
   height="87.837677mm"
   width="172.45009mm">
  <defs
     id="defs4146" />
  <metadata
     id="metadata4149">
    <rdf:RDF>
      <cc:Work
         rdf:about="">
        <dc:format>image/svg+xml</dc:format>
        <dc:type
           rdf:resource="http://purl.org/dc/dcmitype/StillImage" />
        <dc:title></dc:title>
      </cc:Work>
    </rdf:RDF>
  </metadata>
  <g
     transform="translate(484.80752,-376.74427)"
     id="layer1">
    <g
       id="g3995"
       transform="matrix(1.25,0,0,-1.25,-547.5154,1284.4079)">
      <g
         id="g68"
         transform="translate(223.3437,600.1729)">
        <path
           d="m 0,0 10.529,20.247 5.21,0 0,45.02 -41.657,0 -2.502,-5.002 0,-40.018 28.42,0 L 0,0 Z"
           style="fill:#d72828;fill-opacity:1;fill-rule:nonzero;stroke:none"
           id="path70" />
      </g>
      <g
         id="g72"
         transform="translate(271.8359,600.1729)">
        <path
           d="m 0,0 10.529,20.247 5.21,0 0,45.02 -41.657,0 -2.502,-5.002 0,-40.018 28.42,0 L 0,0 Z"
           style="fill:#d72828;fill-opacity:1;fill-rule:nonzero;stroke:none"
           id="path74" />
      </g>
      <g
         id="g76"
         transform="translate(320.3291,600.1729)">
        <path
           d="m 0,0 10.528,20.247 5.211,0 0,45.02 -41.657,0 -2.501,-5.002 0,-40.018 L 0,20.247 0,0 Z"
           style="fill:#d72828;fill-opacity:1;fill-rule:nonzero;stroke:none"
           id="path78" />
      </g>
      <g
         id="g80"
         transform="translate(89.1143,620.4194)">
        <path
           d="m 0,0 5.21,0 0,45.02 -41.656,0 -2.502,-5.002 0,-40.018 28.42,0 0,-20.247 L 0,0 Z"
           style="fill:#d72828;fill-opacity:1;fill-rule:nonzero;stroke:none"
           id="path82" />
      </g>
      <g
         id="g84"
         transform="translate(137.6074,620.4194)">
        <path
           d="m 0,0 5.209,0 0,45.02 -41.656,0 -2.502,-5.002 0,-40.018 28.42,0 0,-20.247 L 0,0 Z"
           style="fill:#d72828;fill-opacity:1;fill-rule:nonzero;stroke:none"
           id="path86" />
      </g>
      <g
         id="g88"
         transform="translate(175.5723,600.1729)">
        <path
           d="m 0,0 10.528,20.247 5.21,0 0,45.02 -41.656,0 -2.502,-5.002 0,-40.018 28.42,0 L 0,0 Z"
           style="fill:#d72828;fill-opacity:1;fill-rule:nonzero;stroke:none"
           id="path90" />
      </g>
      <g
         id="g92"
         transform="translate(206.793,537.4072)">
        <path
           d="m 0,0 0,-40.018 28.42,0 0,-20.247 10.527,20.247 5.211,0 0,45.02 -41.656,0 L 0,0 Z"
           style="fill:#d72828;fill-opacity:1;fill-rule:nonzero;stroke:none"
           id="path94" />
      </g>
      <g
         id="g96"
         transform="translate(158.2461,537.4072)">
        <path
           d="m 0,0 0,-40.018 28.42,0 0,-20.247 10.529,20.247 5.211,0 0,45.02 -41.658,0 L 0,0 Z"
           style="fill:#d72828;fill-opacity:1;fill-rule:nonzero;stroke:none"
           id="path98" />
      </g>
      <g
         id="g100"
         transform="translate(255.2871,537.4072)">
        <path
           d="m 0,0 0,-40.018 28.418,0 0,-20.247 10.529,20.247 5.21,0 0,45.02 L 2.5,5.002 0,0 Z"
           style="fill:#d72828;fill-opacity:1;fill-rule:nonzero;stroke:none"
           id="path102" />
      </g>
      <g
         id="g104"
         transform="translate(303.7793,537.4072)">
        <path
           d="m 0,0 0,-40.018 28.418,0 0,-20.247 10.53,20.247 5.21,0 0,45.02 -41.656,0 L 0,0 Z"
           style="fill:#d72828;fill-opacity:1;fill-rule:nonzero;stroke:none"
           id="path106" />
      </g>
      <g
         id="g108"
         transform="translate(351.9658,537.4072)">
        <path
           d="m 0,0 0,-40.018 28.42,0 0,-20.247 10.53,20.247 5.209,0 0,45.02 -41.656,0 L 0,0 Z"
           style="fill:#d72828;fill-opacity:1;fill-rule:nonzero;stroke:none"
           id="path110" />
      </g>
      <g
         id="g112"
         transform="translate(380.1592,726.1309)">
        <path
           d="m 0,0 -9.539,-19.073 0,-148.558 108.367,0 0,-81.239 40.146,81.239 19.868,0 L 158.842,0 0,0 Z"
           style="fill:#d72828;fill-opacity:1;fill-rule:nonzero;stroke:none"
           id="path114" />
      </g>
      <g
         id="g116"
         transform="translate(80.5527,598.5278)">
        <path
           d="m 0,0 0,-40.019 28.42,0 0,-20.245 10.527,20.245 5.211,0 0,45.021 L 2.5,5.002 0,0 Z"
           style="fill:#d72828;fill-opacity:1;fill-rule:nonzero;stroke:none"
           id="path118" />
      </g>
      <g
         id="g120"
         transform="translate(167.9932,558.5088)">
        <path
           d="m 0,0 5.21,0 0,45.021 -41.656,0 -2.501,-5.002 0,-40.019 28.419,0 0,-20.245 L 0,0 Z"
           style="fill:#d72828;fill-opacity:1;fill-rule:nonzero;stroke:none"
           id="path122" />
      </g>
      <g
         id="g124"
         transform="translate(216.4863,558.5088)">
        <path
           d="m 0,0 5.211,0 0,45.021 -41.656,0 -2.503,-5.002 0,-40.019 28.421,0 0,-20.245 L 0,0 Z"
           style="fill:#d72828;fill-opacity:1;fill-rule:nonzero;stroke:none"
           id="path126" />
      </g>
      <g
         id="g128"
         transform="translate(312.8574,558.5088)">
        <path
           d="m 0,0 5.212,0 0,45.021 -41.657,0 -2.502,-5.002 0,-40.019 28.42,0 0,-20.245 L 0,0 Z"
           style="fill:#d72828;fill-opacity:1;fill-rule:nonzero;stroke:none"
           id="path130" />
      </g>
      <g
         id="g132"
         transform="translate(69.0771,657.0259)">
        <path
           d="m 0,0 0,-10.689 6.578,0 0,10.689 5.638,0 0,-27.956 -5.638,0 0,12.412 -6.578,0 0,-12.412 -5.638,0 L -5.638,0 0,0 Z"
           style="fill:#ffffff;fill-opacity:1;fill-rule:nonzero;stroke:none"
           id="path134" />
      </g>
      <g
         id="g136"
         transform="translate(101.0547,572.8384)">
        <path
           d="m 0,0 c 0.352,-1.161 1.128,-1.742 2.328,-1.742 1.175,0 1.939,0.581 2.291,1.742 0.353,1.161 0.528,2.891 0.528,5.188 0,2.296 -0.175,4.026 -0.528,5.187 C 4.267,11.537 3.503,12.118 2.328,12.118 1.128,12.118 0.352,11.537 0,10.375 -0.354,9.214 -0.529,7.484 -0.529,5.188 -0.529,2.891 -0.354,1.161 0,0 m -0.529,22.611 0,-9.122 0.078,0 c 0.471,0.991 1.07,1.703 1.801,2.133 0.73,0.431 1.644,0.647 2.741,0.647 2.219,0 3.849,-0.869 4.894,-2.604 1.042,-1.737 1.566,-4.561 1.566,-8.477 0,-3.915 -0.524,-6.722 -1.566,-8.418 C 7.94,-4.927 6.31,-5.775 4.091,-5.775 c -1.019,0 -1.888,0.19 -2.605,0.568 -0.717,0.378 -1.364,0.985 -1.937,1.82 l -0.078,0 0,-8.731 -5.404,0 0,34.729 5.404,0 z"
           style="fill:#ffffff;fill-opacity:1;fill-rule:nonzero;stroke:none"
           id="path138" />
      </g>
      <path
         d="m 153.268,567.494 -5.404,0 0,21.064 5.404,0 0,-21.064 z m 0,23.649 -5.404,0 0,4.62 5.404,0 0,-4.62 z"
         style="fill:#ffffff;fill-opacity:1;fill-rule:nonzero;stroke:none"
         id="path140" />
      <g
         id="g142"
         transform="translate(177.8418,513.6934)">
        <path
           d="m 0,0 c 0.053,-0.914 0.177,-1.697 0.373,-2.349 0.195,-0.653 0.488,-1.162 0.881,-1.527 0.392,-0.366 0.914,-0.548 1.565,-0.548 1.097,0 1.855,0.573 2.273,1.723 0.416,1.148 0.625,3.04 0.625,5.677 0,2.636 -0.209,4.528 -0.625,5.677 C 4.674,9.802 3.916,10.376 2.819,10.376 2.168,10.376 1.646,10.193 1.254,9.828 0.861,9.462 0.568,8.953 0.373,8.3 0.177,7.647 0.053,6.865 0,5.952 -0.053,5.038 -0.078,4.046 -0.078,2.976 -0.078,1.905 -0.053,0.914 0,0 m -5.05,7.752 c 0.286,1.384 0.757,2.539 1.409,3.466 0.652,0.926 1.507,1.631 2.565,2.114 1.056,0.482 2.355,0.724 3.895,0.724 1.619,0.026 2.963,-0.189 4.035,-0.646 1.068,-0.457 1.917,-1.155 2.543,-2.095 0.626,-0.939 1.071,-2.101 1.332,-3.484 0.259,-1.384 0.392,-3.002 0.392,-4.855 0,-1.801 -0.144,-3.394 -0.432,-4.777 C 10.402,-3.185 9.932,-4.34 9.279,-5.266 8.627,-6.193 7.773,-6.878 6.716,-7.322 5.658,-7.765 4.359,-7.987 2.819,-7.987 c -1.618,-0.026 -2.962,0.176 -4.032,0.607 -1.07,0.43 -1.919,1.109 -2.545,2.035 -0.627,0.927 -1.07,2.089 -1.332,3.485 -0.262,1.396 -0.391,3.008 -0.391,4.836 0,1.801 0.143,3.393 0.431,4.776"
           style="fill:#ffffff;fill-opacity:1;fill-rule:nonzero;stroke:none"
           id="path144" />
      </g>
      <g
         id="g146"
         transform="translate(226.6621,519.3315)">
        <path
           d="m 0,0 0.077,0 5.443,7.87 5.951,0 -6.069,-8.301 6.97,-12.764 -5.952,0 L 1.918,-4.542 0,-7.047 l 0,-6.148 -5.405,0 0,27.956 5.405,0 L 0,0 Z"
           style="fill:#ffffff;fill-opacity:1;fill-rule:nonzero;stroke:none"
           id="path148" />
      </g>
      <g
         id="g150"
         transform="translate(275.5059,519.3315)">
        <path
           d="m 0,0 0.079,0 5.442,7.87 5.951,0 -6.07,-8.301 6.969,-12.764 -5.95,0 L 1.918,-4.542 0,-7.047 l 0,-6.148 -5.403,0 0,27.956 5.403,0 L 0,0 Z"
           style="fill:#ffffff;fill-opacity:1;fill-rule:nonzero;stroke:none"
           id="path152" />
      </g>
      <g
         id="g154"
         transform="translate(328.1582,508.603)">
        <path
           d="m 0,0 c -0.575,-1.044 -1.317,-1.788 -2.231,-2.231 -0.915,-0.444 -1.958,-0.666 -3.132,-0.666 -1.723,0 -3.049,0.45 -3.976,1.351 -0.926,0.9 -1.39,2.408 -1.39,4.522 l 0,15.623 5.405,0 0,-14.526 c 0,-1.097 0.181,-1.861 0.547,-2.291 0.365,-0.431 0.953,-0.646 1.761,-0.646 1.907,0 2.86,1.161 2.86,3.485 l 0,13.978 5.403,0 0,-21.065 -5.169,0 L 0.078,0 0,0 Z"
           style="fill:#ffffff;fill-opacity:1;fill-rule:nonzero;stroke:none"
           id="path156" />
      </g>
      <g
         id="g158"
         transform="translate(374.4062,527.2017)">
        <path
           d="m 0,0 0,-2.819 0.078,0 c 0.549,1.017 1.214,1.833 1.997,2.446 0.783,0.614 1.736,0.921 2.858,0.921 0.157,0 0.32,-0.007 0.49,-0.02 C 5.593,0.515 5.755,0.495 5.912,0.47 l 0,-5.169 C 5.625,-4.673 5.345,-4.653 5.07,-4.64 4.797,-4.627 4.516,-4.62 4.229,-4.62 3.759,-4.62 3.288,-4.686 2.819,-4.816 2.349,-4.947 1.918,-5.163 1.527,-5.462 1.135,-5.762 0.822,-6.154 0.587,-6.637 0.353,-7.12 0.235,-7.713 0.235,-8.418 l 0,-12.647 -5.404,0 L -5.169,0 0,0 Z"
           style="fill:#ffffff;fill-opacity:1;fill-rule:nonzero;stroke:none"
           id="path160" />
      </g>
      <g
         id="g162"
         transform="translate(300.0039,596.6631)">
        <path
           d="m 0,0 -3.838,-5.638 -3.681,0 L -5.403,0 0,0 Z m -2.271,-29.169 -5.403,0 0,21.064 5.403,0 0,-21.064 z"
           style="fill:#ffffff;fill-opacity:1;fill-rule:nonzero;stroke:none"
           id="path164" />
      </g>
      <g
         id="g166"
         transform="translate(196.3984,574.874)">
        <path
           d="m 0,0 c 0.052,-0.875 0.176,-1.625 0.373,-2.251 0.194,-0.626 0.487,-1.116 0.881,-1.468 0.391,-0.353 0.912,-0.529 1.565,-0.529 1.096,0 1.853,0.555 2.27,1.664 0.419,1.109 0.628,2.93 0.628,5.462 0,2.428 -0.209,4.183 -0.628,5.267 C 4.672,9.227 3.915,9.769 2.819,9.769 2.166,9.769 1.645,9.593 1.254,9.241 0.86,8.888 0.567,8.405 0.373,7.792 0.176,7.179 0.052,6.454 0,5.619 -0.053,4.783 -0.079,3.87 -0.079,2.878 -0.079,1.834 -0.053,0.875 0,0 m -1.019,18.853 c -0.444,0.443 -0.88,0.874 -1.311,1.292 -0.431,0.417 -0.855,0.822 -1.273,1.213 L 0.47,23.747 C 0.939,23.329 1.39,22.918 1.82,22.514 2.252,22.109 2.676,21.698 3.093,21.28 l 2.936,1.762 1.684,-1.644 -3.015,-1.762 c 1.044,-1.149 1.964,-2.317 2.761,-3.504 0.795,-1.188 1.468,-2.442 2.016,-3.759 0.547,-1.318 0.959,-2.734 1.234,-4.248 0.273,-1.514 0.41,-3.171 0.41,-4.973 0,-1.8 -0.143,-3.393 -0.431,-4.777 C 10.4,-3.008 9.932,-4.164 9.279,-5.09 8.626,-6.017 7.771,-6.702 6.715,-7.145 5.658,-7.589 4.358,-7.811 2.819,-7.811 1.2,-7.836 -0.145,-7.635 -1.215,-7.204 c -1.07,0.431 -1.918,1.109 -2.545,2.036 -0.625,0.926 -1.07,2.088 -1.33,3.485 -0.262,1.396 -0.392,3.008 -0.392,4.835 0,1.566 0.13,2.982 0.392,4.248 0.26,1.267 0.665,2.35 1.213,3.25 0.549,0.901 1.252,1.592 2.115,2.076 0.862,0.482 1.892,0.724 3.093,0.724 0.443,0 0.9,-0.078 1.37,-0.235 0.471,-0.157 0.928,-0.418 1.371,-0.783 L 4.15,12.51 c -0.47,0.757 -1.017,1.533 -1.644,2.329 -0.627,0.797 -1.279,1.586 -1.957,2.369 l -3.016,-1.761 -1.527,1.644 2.975,1.762 z"
           style="fill:#ffffff;fill-opacity:1;fill-rule:nonzero;stroke:none"
           id="path168" />
      </g>
      <g
         id="g170"
         transform="translate(121.5635,644.125)">
        <path
           d="M 0,0 C -0.077,0.612 -0.214,1.135 -0.41,1.566 -0.606,1.997 -0.881,2.322 -1.232,2.544 -1.585,2.767 -2.035,2.878 -2.584,2.878 -3.132,2.878 -3.582,2.753 -3.935,2.506 -4.286,2.257 -4.567,1.931 -4.776,1.526 -4.985,1.122 -5.135,0.671 -5.227,0.176 -5.318,-0.32 -5.364,-0.816 -5.364,-1.312 l 0,-0.822 5.521,0 C 0.131,-1.325 0.079,-0.614 0,0 m -5.364,-7.028 c 0,-0.627 0.046,-1.234 0.137,-1.821 0.092,-0.588 0.242,-1.11 0.451,-1.567 0.209,-0.456 0.482,-0.822 0.822,-1.096 0.34,-0.274 0.758,-0.411 1.253,-0.411 0.914,0 1.579,0.327 1.997,0.979 0.418,0.652 0.704,1.645 0.861,2.976 l 4.856,0 c -0.105,-2.454 -0.758,-4.321 -1.958,-5.599 -1.201,-1.28 -3.093,-1.918 -5.677,-1.918 -1.958,0 -3.485,0.326 -4.581,0.978 -1.097,0.652 -1.905,1.514 -2.428,2.584 -0.522,1.07 -0.843,2.271 -0.958,3.603 -0.119,1.331 -0.178,2.662 -0.178,3.993 0,1.41 0.098,2.766 0.293,4.072 0.197,1.305 0.588,2.467 1.175,3.485 0.587,1.018 1.43,1.827 2.527,2.428 1.095,0.599 2.557,0.9 4.385,0.9 1.566,0 2.851,-0.255 3.856,-0.764 C 2.474,5.285 3.264,4.567 3.837,3.641 4.411,2.714 4.804,1.592 5.013,0.274 5.222,-1.045 5.325,-2.513 5.325,-4.131 l 0,-1.214 -10.689,0 0,-1.683 z"
           style="fill:#ffffff;fill-opacity:1;fill-rule:nonzero;stroke:none"
           id="path172" />
      </g>
      <g
         id="g174"
         transform="translate(163.2871,626.2119)">
        <path
           d="m 0,0 c 0.991,0 1.703,0.261 2.135,0.783 0.429,0.522 0.683,1.214 0.763,2.075 l -5.913,21.065 5.638,0 3.133,-14.566 0.078,0 2.74,14.566 5.405,0 L 8.887,4.268 C 8.418,2.52 7.968,1.103 7.537,0.02 7.106,-1.063 6.598,-1.899 6.01,-2.486 5.424,-3.074 4.717,-3.458 3.896,-3.642 3.074,-3.823 2.036,-3.916 0.783,-3.916 l -2.192,0 0,4.033 C -0.939,0.04 -0.47,0 0,0"
           style="fill:#ffffff;fill-opacity:1;fill-rule:nonzero;stroke:none"
           id="path176" />
      </g>
      <g
         id="g178"
         transform="translate(216.5635,650.1348)">
        <path
           d="m 0,0 0,-2.819 0.079,0 c 0.547,1.018 1.213,1.833 1.996,2.447 0.783,0.613 1.735,0.92 2.859,0.92 0.155,0 0.319,-0.006 0.489,-0.019 C 5.592,0.516 5.756,0.496 5.911,0.47 l 0,-5.169 c -0.287,0.026 -0.567,0.046 -0.84,0.059 -0.275,0.013 -0.556,0.02 -0.842,0.02 -0.47,0 -0.94,-0.066 -1.411,-0.196 C 2.349,-4.947 1.918,-5.162 1.526,-5.461 1.136,-5.763 0.822,-6.154 0.587,-6.636 0.353,-7.12 0.234,-7.713 0.234,-8.418 l 0,-12.647 -5.403,0 L -5.169,0 0,0 Z"
           style="fill:#ffffff;fill-opacity:1;fill-rule:nonzero;stroke:none"
           id="path180" />
      </g>
      <path
         d="m 267.863,629.07 -5.403,0 0,21.065 5.403,0 0,-21.065 z m 0,23.649 -5.403,0 0,4.62 5.403,0 0,-4.62 z"
         style="fill:#ffffff;fill-opacity:1;fill-rule:nonzero;stroke:none"
         id="path182" />
      <g
         id="g184"
         transform="translate(311.0508,636.4507)">
        <path
           d="m 0,0 c 0.053,-0.875 0.178,-1.625 0.373,-2.251 0.195,-0.627 0.488,-1.117 0.881,-1.469 0.391,-0.352 0.913,-0.529 1.566,-0.529 1.096,0 1.852,0.555 2.271,1.665 0.417,1.109 0.626,2.929 0.626,5.461 0,2.428 -0.209,4.184 -0.626,5.267 C 4.672,9.227 3.916,9.769 2.82,9.769 2.167,9.769 1.645,9.593 1.254,9.24 0.861,8.888 0.568,8.405 0.373,7.792 0.178,7.178 0.053,6.454 0,5.619 -0.052,4.783 -0.077,3.87 -0.077,2.877 -0.077,1.833 -0.052,0.874 0,0 m -1.018,18.853 c -0.444,0.443 -0.88,0.874 -1.312,1.292 -0.43,0.417 -0.854,0.822 -1.272,1.213 l 4.073,2.389 c 0.47,-0.418 0.92,-0.829 1.351,-1.234 0.43,-0.405 0.854,-0.816 1.272,-1.233 L 6.03,23.042 7.713,21.397 4.699,19.635 c 1.043,-1.148 1.964,-2.316 2.76,-3.504 0.797,-1.188 1.469,-2.441 2.016,-3.758 0.549,-1.319 0.96,-2.735 1.234,-4.249 0.274,-1.514 0.412,-3.171 0.412,-4.972 0,-1.801 -0.144,-3.394 -0.431,-4.777 C 10.402,-3.009 9.932,-4.164 9.279,-5.09 8.627,-6.018 7.773,-6.702 6.715,-7.146 5.658,-7.589 4.359,-7.811 2.82,-7.811 c -1.619,-0.026 -2.964,0.176 -4.033,0.607 -1.071,0.43 -1.919,1.109 -2.545,2.036 -0.627,0.926 -1.072,2.088 -1.332,3.484 -0.261,1.396 -0.391,3.008 -0.391,4.836 0,1.566 0.13,2.982 0.391,4.248 0.26,1.266 0.666,2.349 1.215,3.249 0.547,0.901 1.252,1.593 2.113,2.076 0.863,0.483 1.893,0.724 3.094,0.724 0.443,0 0.9,-0.078 1.371,-0.235 0.469,-0.156 0.926,-0.418 1.369,-0.783 l 0.079,0.079 c -0.47,0.756 -1.018,1.532 -1.644,2.329 -0.628,0.796 -1.279,1.585 -1.958,2.369 l -3.016,-1.762 -1.525,1.644 2.974,1.763 z"
           style="fill:#ffffff;fill-opacity:1;fill-rule:nonzero;stroke:none"
           id="path186" />
      </g>
      <g
         id="g188"
         transform="translate(401.5078,581.9238)">
        <path
           d="m 0,0 0.123,0 0,30.029 8.106,0 0,-43.847 -10.071,0 -10.808,30.705 -0.123,0 0,-30.705 -8.106,0 0,43.847 10.194,0 L 0,0 Z"
           style="fill:#ffffff;fill-opacity:1;fill-rule:nonzero;stroke:none"
           id="path190" />
      </g>
      <g
         id="g192"
         transform="translate(434.6689,623.3755)">
        <path
           d="m 0,0 -6.019,-8.843 -5.771,0 L -8.475,0 0,0 Z m -12.957,-42.005 c 0,-1.105 0.071,-2.119 0.215,-3.039 0.142,-0.921 0.408,-1.72 0.798,-2.396 0.388,-0.676 0.922,-1.208 1.596,-1.596 0.675,-0.39 1.526,-0.584 2.549,-0.584 1.065,0 1.925,0.194 2.58,0.584 0.654,0.388 1.176,0.92 1.566,1.596 0.388,0.676 0.654,1.475 0.798,2.396 0.142,0.92 0.214,1.934 0.214,3.039 l 0,30.583 8.843,0 0,-30.583 c 0,-2.784 -0.389,-5.087 -1.166,-6.909 -0.779,-1.822 -1.822,-3.265 -3.132,-4.329 -1.311,-1.065 -2.805,-1.781 -4.483,-2.15 -1.68,-0.368 -3.419,-0.552 -5.22,-0.552 -1.803,0 -3.541,0.164 -5.22,0.492 -1.678,0.326 -3.172,0.991 -4.483,1.995 -1.31,1.003 -2.354,2.426 -3.132,4.268 -0.778,1.842 -1.166,4.238 -1.166,7.185 l 0,30.583 8.843,0 0,-30.583 z"
           style="fill:#ffffff;fill-opacity:1;fill-rule:nonzero;stroke:none"
           id="path194" />
      </g>
      <g
         id="g196"
         transform="translate(464.8828,581.9238)">
        <path
           d="m 0,0 0.123,0 0,30.029 8.106,0 0,-43.847 -10.071,0 -10.808,30.705 -0.123,0 0,-30.705 -8.106,0 0,43.847 10.193,0 L 0,0 Z"
           style="fill:#ffffff;fill-opacity:1;fill-rule:nonzero;stroke:none"
           id="path198" />
      </g>
      <g
         id="g200"
         transform="translate(495.0967,584.6255)">
        <path
           d="m 0,0 -4.237,19.712 -0.123,0 L -8.599,0 0,0 Z m 1.166,27.328 11.606,-43.848 -9.21,0 -2.027,9.273 -11.668,0 -2.027,-9.273 -9.212,0 11.608,43.848 10.93,0 z"
           style="fill:#ffffff;fill-opacity:1;fill-rule:nonzero;stroke:none"
           id="path202" />
      </g>
      <path
         d="m 520.766,568.106 -8.475,0 0,8.106 8.475,0 0,-8.106 z m -16.213,31.688 c 0,1.842 0.256,3.54 0.768,5.097 0.511,1.555 1.268,2.886 2.272,3.991 1.003,1.106 2.272,1.975 3.806,2.611 1.537,0.633 3.308,0.952 5.314,0.952 4.338,0 7.584,-1.075 9.733,-3.225 2.149,-2.149 3.225,-5.026 3.225,-8.628 0,-1.719 -0.276,-3.316 -0.83,-4.79 -0.553,-1.474 -1.567,-3.071 -3.039,-4.79 l -2.457,-2.763 c -1.066,-1.188 -1.832,-2.273 -2.303,-3.255 -0.472,-0.983 -0.707,-2.252 -0.707,-3.807 l 0,-0.921 -7.614,0 0,2.394 c 0,2.047 0.286,3.777 0.859,5.19 0.573,1.412 1.556,2.895 2.948,4.452 l 2.334,2.64 c 0.86,0.942 1.463,1.954 1.812,3.04 0.347,1.084 0.522,2.242 0.522,3.47 0,1.556 -0.348,2.814 -1.045,3.777 -0.696,0.961 -1.741,1.443 -3.131,1.443 -1.556,0 -2.672,-0.625 -3.347,-1.873 -0.675,-1.25 -1.014,-2.877 -1.014,-4.883 l 0,-1.535 -8.106,0 0,1.413 z"
         style="fill:#ffffff;fill-opacity:1;fill-rule:nonzero;stroke:none"
         id="path204" />
    </g>
  </g>
</svg>
