<?xml version="1.0" encoding="UTF-8" standalone="no"?>
<svg
   xmlns:dc="http://purl.org/dc/elements/1.1/"
   xmlns:cc="http://creativecommons.org/ns#"
   xmlns:rdf="http://www.w3.org/1999/02/22-rdf-syntax-ns#"
   xmlns:svg="http://www.w3.org/2000/svg"
   xmlns="http://www.w3.org/2000/svg"
   version="1.1"
   id="svg4154"
   viewBox="0 0 477.38223 312.09363"
   height="88.079758mm"
   width="134.72787mm">
  <defs
     id="defs4156" />
  <metadata
     id="metadata4159">
    <rdf:RDF>
      <cc:Work
         rdf:about="">
        <dc:format>image/svg+xml</dc:format>
        <dc:type
           rdf:resource="http://purl.org/dc/dcmitype/StillImage" />
        <dc:title></dc:title>
      </cc:Work>
    </rdf:RDF>
  </metadata>
  <g
     transform="translate(-118.45173,-87.743965)"
     id="layer1">
    <g
       transform="matrix(1.25,0,0,-1.25,-17.877017,995.29334)"
       id="g4027">
      <g
         id="g3774">
        <g
           transform="translate(174.2915,660.5615)"
           id="g12">
          <path
             id="path14"
             style="fill:#ed1c24;fill-opacity:1;fill-rule:nonzero;stroke:none"
             d="m 0,0 10.563,20.312 5.227,0 0,45.166 -41.792,0 -2.51,-5.018 0,-40.148 L 0,20.312 0,0 Z" />
        </g>
        <g
           transform="translate(222.9409,660.5615)"
           id="g16">
          <path
             id="path18"
             style="fill:#ed1c24;fill-opacity:1;fill-rule:nonzero;stroke:none"
             d="m 0,0 10.563,20.312 5.227,0 0,45.166 -41.792,0 -2.51,-5.018 0,-40.148 L 0,20.312 0,0 Z" />
        </g>
        <g
           transform="translate(271.5903,660.5615)"
           id="g20">
          <path
             id="path22"
             style="fill:#ed1c24;fill-opacity:1;fill-rule:nonzero;stroke:none"
             d="m 0,0 10.563,20.312 5.227,0 0,45.166 -41.791,0 -2.511,-5.018 0,-40.148 L 0,20.312 0,0 Z" />
        </g>
        <g
           transform="translate(109.063,598.0215)"
           id="g24">
          <path
             id="path26"
             style="fill:#ed1c24;fill-opacity:1;fill-rule:nonzero;stroke:none"
             d="m 0,0 0,-40.147 28.512,0 0,-20.313 10.562,20.313 5.228,0 0,45.166 -41.792,0 L 0,0 Z" />
        </g>
        <g
           transform="translate(157.7124,598.0215)"
           id="g28">
          <path
             id="path30"
             style="fill:#ed1c24;fill-opacity:1;fill-rule:nonzero;stroke:none"
             d="m 0,0 0,-40.147 28.512,0 0,-20.313 10.562,20.313 5.228,0 0,45.166 -41.792,0 L 0,0 Z" />
        </g>
        <g
           transform="translate(245.436,557.874)"
           id="g32">
          <path
             id="path34"
             style="fill:#ed1c24;fill-opacity:1;fill-rule:nonzero;stroke:none"
             d="m 0,0 5.228,0 0,45.166 -41.791,0 -2.511,-5.019 0,-40.147 28.511,0 0,-20.312 L 0,0 Z" />
        </g>
        <g
           transform="translate(293.7798,557.874)"
           id="g36">
          <path
             id="path38"
             style="fill:#ed1c24;fill-opacity:1;fill-rule:nonzero;stroke:none"
             d="m 0,0 5.228,0 0,45.166 -41.791,0 -2.511,-5.019 0,-40.147 28.511,0 0,-20.312 L 0,0 Z" />
        </g>
        <g
           transform="translate(331.6138,726.0386)"
           id="g40">
          <path
             id="path42"
             style="fill:#ed1c24;fill-opacity:1;fill-rule:nonzero;stroke:none"
             d="m 0,0 -9.57,-19.134 0,-149.038 108.716,0 0,-81.502 40.277,81.502 19.932,0 L 159.355,0 0,0 Z" />
        </g>
        <g
           transform="translate(236.895,536.8252)"
           id="g44">
          <path
             id="path46"
             style="fill:#ed1c24;fill-opacity:1;fill-rule:nonzero;stroke:none"
             d="m 0,0 0,-40.146 28.512,0 0,-20.314 10.562,20.314 5.228,0 0,45.165 -41.792,0 L 0,0 Z" />
        </g>
        <g
           transform="translate(285.2388,536.8252)"
           id="g48">
          <path
             id="path50"
             style="fill:#ed1c24;fill-opacity:1;fill-rule:nonzero;stroke:none"
             d="m 0,0 0,-40.146 28.512,0 0,-20.314 10.562,20.314 5.227,0 0,45.165 -41.791,0 L 0,0 Z" />
        </g>
        <g
           transform="translate(215.4497,619.9873)"
           id="g52">
          <path
             id="path54"
             style="fill:#ed1c24;fill-opacity:1;fill-rule:nonzero;stroke:none"
             d="m 0,0 5.228,0 0,45.167 -41.792,0 -2.51,-5.019 0,-40.148 28.511,0 0,-20.311 L 0,0 Z" />
        </g>
        <g
           transform="translate(264.0991,619.9873)"
           id="g56">
          <path
             id="path58"
             style="fill:#ed1c24;fill-opacity:1;fill-rule:nonzero;stroke:none"
             d="m 0,0 5.228,0 0,45.167 -41.791,0 -2.51,-5.019 0,-40.148 28.51,0 0,-20.311 L 0,0 Z" />
        </g>
        <g
           transform="translate(312.7485,619.9873)"
           id="g60">
          <path
             id="path62"
             style="fill:#ed1c24;fill-opacity:1;fill-rule:nonzero;stroke:none"
             d="m 0,0 5.228,0 0,45.167 -41.791,0 -2.51,-5.019 0,-40.148 28.51,0 0,-20.311 L 0,0 Z" />
        </g>
      </g>
      <g
         id="g72"
         transform="translate(170.3267,712.5903)">
        <path
           d="m 0,0 c -0.485,0.929 -1.368,1.395 -2.651,1.395 -0.707,0 -1.29,-0.191 -1.748,-0.57 -0.459,-0.38 -0.819,-0.995 -1.081,-1.846 -0.262,-0.852 -0.446,-1.964 -0.55,-3.339 -0.105,-1.375 -0.157,-3.058 -0.157,-5.048 0,-2.121 0.073,-3.836 0.216,-5.145 0.144,-1.31 0.367,-2.324 0.668,-3.045 0.301,-0.72 0.681,-1.204 1.139,-1.453 0.458,-0.249 0.989,-0.373 1.591,-0.373 0.497,0 0.962,0.085 1.395,0.256 0.431,0.169 0.805,0.51 1.119,1.021 0.314,0.51 0.563,1.23 0.746,2.16 0.183,0.929 0.275,2.154 0.275,3.673 l 5.657,0 c 0,-1.519 -0.118,-2.96 -0.353,-4.321 -0.237,-1.362 -0.675,-2.553 -1.316,-3.575 -0.642,-1.021 -1.546,-1.82 -2.711,-2.396 -1.166,-0.576 -2.677,-0.864 -4.537,-0.864 -2.121,0 -3.81,0.341 -5.067,1.021 -1.257,0.681 -2.219,1.663 -2.887,2.946 -0.668,1.283 -1.1,2.815 -1.296,4.596 -0.197,1.781 -0.295,3.744 -0.295,5.892 0,2.121 0.098,4.078 0.295,5.872 0.196,1.794 0.628,3.333 1.296,4.616 0.668,1.283 1.63,2.284 2.887,3.005 1.257,0.72 2.946,1.08 5.067,1.08 2.016,0 3.607,-0.328 4.772,-0.982 C 3.64,3.921 4.51,3.089 5.087,2.082 c 0.576,-1.008 0.936,-2.096 1.08,-3.26 0.144,-1.166 0.216,-2.259 0.216,-3.28 l -5.656,0 C 0.727,-2.416 0.484,-0.93 0,0"
           style="fill:#ffffff;fill-opacity:1;fill-rule:nonzero;stroke:none"
           id="path74" />
      </g>
      <g
         id="g76"
         transform="translate(217.8921,699.4316)">
        <path
           d="m 0,0 c -0.419,-0.171 -0.799,-0.295 -1.139,-0.374 -1.099,-0.235 -1.885,-0.628 -2.356,-1.178 -0.472,-0.55 -0.707,-1.296 -0.707,-2.239 0,-0.812 0.156,-1.506 0.471,-2.082 0.314,-0.576 0.837,-0.864 1.571,-0.864 0.366,0 0.747,0.059 1.139,0.177 0.393,0.118 0.752,0.308 1.081,0.57 0.327,0.261 0.594,0.602 0.804,1.021 0.209,0.418 0.315,0.916 0.315,1.492 l 0,4.164 C 0.812,0.398 0.419,0.17 0,0 m -8.72,5.283 c 0,1.231 0.197,2.259 0.589,3.084 0.394,0.824 0.924,1.492 1.591,2.003 0.668,0.51 1.453,0.877 2.357,1.1 0.904,0.222 1.866,0.334 2.888,0.334 1.623,0 2.932,-0.158 3.927,-0.472 C 3.627,11.018 4.399,10.572 4.95,9.997 5.499,9.42 5.873,8.733 6.069,7.935 6.266,7.135 6.363,6.265 6.363,5.322 l 0,-11.116 c 0,-0.996 0.046,-1.768 0.138,-2.317 0.092,-0.551 0.27,-1.14 0.531,-1.768 l -5.185,0 c -0.184,0.34 -0.322,0.7 -0.412,1.08 -0.092,0.38 -0.177,0.752 -0.256,1.119 l -0.078,0 c -0.629,-1.099 -1.356,-1.813 -2.18,-2.14 -0.826,-0.327 -1.893,-0.492 -3.202,-0.492 -0.943,0 -1.741,0.165 -2.396,0.492 -0.655,0.327 -1.178,0.778 -1.571,1.355 -0.393,0.575 -0.682,1.224 -0.864,1.944 -0.184,0.72 -0.276,1.434 -0.276,2.141 0,0.995 0.105,1.852 0.315,2.573 0.209,0.72 0.53,1.335 0.962,1.846 0.432,0.511 0.982,0.936 1.65,1.276 0.668,0.341 1.473,0.642 2.415,0.904 l 3.065,0.825 c 0.811,0.209 1.375,0.497 1.689,0.864 0.314,0.367 0.471,0.904 0.471,1.611 0,0.811 -0.19,1.446 -0.57,1.905 -0.38,0.457 -1.028,0.687 -1.944,0.687 -0.839,0 -1.467,-0.249 -1.886,-0.746 C -3.64,6.867 -3.849,6.199 -3.849,5.361 l 0,-0.589 -4.871,0 0,0.511 z"
           style="fill:#ffffff;fill-opacity:1;fill-rule:nonzero;stroke:none"
           id="path78" />
      </g>
      <g
         id="g80"
         transform="translate(262.8267,710.6851)">
        <path
           d="m 0,0 0,-2.475 0.078,0 c 0.575,1.048 1.321,1.813 2.239,2.299 0.916,0.484 1.964,0.726 3.142,0.726 1.728,0 3.058,-0.471 3.987,-1.414 0.929,-0.943 1.395,-2.475 1.395,-4.596 l 0,-15.673 -5.421,0 0,14.573 c 0,1.1 -0.184,1.866 -0.55,2.298 -0.367,0.432 -0.956,0.648 -1.767,0.648 -1.913,0 -2.868,-1.165 -2.868,-3.495 l 0,-14.024 -5.421,0 L -5.186,0 0,0 Z"
           style="fill:#ffffff;fill-opacity:1;fill-rule:nonzero;stroke:none"
           id="path82" />
      </g>
      <g
         id="g84"
         transform="translate(193.3022,625.7725)">
        <path
           d="M 0,0 C 0.994,0 1.709,0.263 2.141,0.786 2.573,1.31 2.828,2.003 2.907,2.867 L -3.025,24 2.632,24 5.774,9.388 5.853,9.388 8.602,24 14.023,24 8.916,4.282 C 8.445,2.527 7.993,1.106 7.562,0.02 7.13,-1.066 6.619,-1.905 6.03,-2.494 5.44,-3.083 4.733,-3.47 3.908,-3.653 3.084,-3.836 2.043,-3.928 0.785,-3.928 l -2.199,0 0,4.046 C -0.943,0.039 -0.472,0 0,0"
           style="fill:#ffffff;fill-opacity:1;fill-rule:nonzero;stroke:none"
           id="path86" />
      </g>
      <g
         id="g88"
         transform="translate(244.106,636.2207)">
        <path
           d="m 0,0 c 0.053,-0.917 0.177,-1.702 0.373,-2.356 0.196,-0.656 0.491,-1.166 0.884,-1.533 0.392,-0.367 0.916,-0.549 1.571,-0.549 1.1,0 1.859,0.576 2.278,1.728 0.419,1.152 0.629,3.051 0.629,5.695 0,2.646 -0.21,4.543 -0.629,5.697 C 4.687,9.833 3.928,10.41 2.828,10.41 2.173,10.41 1.649,10.226 1.257,9.859 0.864,9.493 0.569,8.982 0.373,8.328 0.177,7.673 0.053,6.888 0,5.971 -0.053,5.054 -0.078,4.059 -0.078,2.985 -0.078,1.912 -0.053,0.917 0,0 m -5.067,7.778 c 0.288,1.388 0.759,2.546 1.414,3.476 0.654,0.93 1.512,1.637 2.573,2.121 1.06,0.484 2.363,0.728 3.908,0.728 1.623,0.025 2.972,-0.191 4.046,-0.649 1.073,-0.459 1.925,-1.159 2.554,-2.101 0.628,-0.943 1.073,-2.109 1.335,-3.497 0.261,-1.388 0.393,-3.011 0.393,-4.871 0,-1.806 -0.145,-3.404 -0.432,-4.792 C 10.436,-3.195 9.964,-4.354 9.31,-5.283 8.654,-6.213 7.797,-6.9 6.736,-7.345 5.676,-7.79 4.373,-8.013 2.828,-8.013 c -1.624,-0.025 -2.973,0.177 -4.046,0.609 -1.074,0.432 -1.925,1.113 -2.553,2.043 -0.628,0.928 -1.074,2.094 -1.335,3.496 -0.262,1.4 -0.393,3.017 -0.393,4.85 0,1.808 0.144,3.405 0.432,4.793"
           style="fill:#ffffff;fill-opacity:1;fill-rule:nonzero;stroke:none"
           id="path90" />
      </g>
      <g
         id="g92"
         transform="translate(298.4204,631.1143)">
        <path
           d="m 0,0 c -0.576,-1.047 -1.323,-1.794 -2.239,-2.238 -0.917,-0.446 -1.964,-0.668 -3.143,-0.668 -1.728,0 -3.057,0.452 -3.986,1.354 -0.931,0.905 -1.395,2.416 -1.395,4.537 l 0,15.673 5.42,0 0,-14.572 c 0,-1.101 0.184,-1.866 0.55,-2.299 0.367,-0.432 0.957,-0.647 1.768,-0.647 1.912,0 2.868,1.165 2.868,3.496 l 0,14.022 5.421,0 0,-21.133 -5.186,0 L 0.078,0 0,0 Z"
           style="fill:#ffffff;fill-opacity:1;fill-rule:nonzero;stroke:none"
           id="path94" />
      </g>
      <g
         id="g96"
         transform="translate(129.1396,594.6318)">
        <path
           d="m 0,0 0,-9.074 0.078,0 c 1.047,1.807 2.763,2.711 5.146,2.711 1.728,0 3.057,-0.472 3.987,-1.414 0.93,-0.944 1.394,-2.476 1.394,-4.597 l 0,-15.672 -5.42,0 0,14.572 c 0,1.1 -0.184,1.867 -0.55,2.298 -0.367,0.433 -0.956,0.649 -1.768,0.649 C 0.956,-10.527 0,-11.693 0,-14.023 l 0,-14.023 -5.421,0 L -5.421,0 0,0 Z"
           style="fill:#ffffff;fill-opacity:1;fill-rule:nonzero;stroke:none"
           id="path98" />
      </g>
      <g
         id="g100"
         transform="translate(182.8296,581.6885)">
        <path
           d="m 0,0 c -0.079,0.615 -0.216,1.14 -0.412,1.572 -0.196,0.431 -0.471,0.759 -0.824,0.982 -0.355,0.221 -0.806,0.334 -1.356,0.334 -0.55,0 -1.002,-0.125 -1.355,-0.373 C -4.301,2.265 -4.582,1.937 -4.792,1.532 -5.001,1.126 -5.152,0.675 -5.244,0.177 -5.336,-0.32 -5.381,-0.818 -5.381,-1.315 l 0,-0.826 5.538,0 C 0.131,-1.329 0.079,-0.615 0,0 m -5.381,-7.05 c 0,-0.629 0.045,-1.238 0.137,-1.827 0.092,-0.59 0.243,-1.113 0.452,-1.571 0.21,-0.458 0.485,-0.824 0.825,-1.1 0.34,-0.275 0.759,-0.413 1.257,-0.413 0.916,0 1.584,0.327 2.003,0.982 0.419,0.655 0.707,1.65 0.864,2.986 l 4.871,0 c -0.105,-2.462 -0.759,-4.335 -1.964,-5.617 -1.205,-1.284 -3.103,-1.925 -5.696,-1.925 -1.963,0 -3.495,0.327 -4.595,0.982 -1.1,0.655 -1.913,1.519 -2.436,2.592 -0.524,1.074 -0.844,2.278 -0.962,3.614 -0.118,1.335 -0.177,2.671 -0.177,4.007 0,1.414 0.099,2.776 0.295,4.085 0.196,1.31 0.59,2.475 1.179,3.496 0.589,1.022 1.433,1.833 2.533,2.436 1.1,0.601 2.566,0.903 4.399,0.903 1.572,0 2.861,-0.256 3.87,-0.767 1.007,-0.509 1.8,-1.23 2.377,-2.16 C 4.426,2.724 4.818,1.597 5.028,0.275 5.237,-1.048 5.343,-2.521 5.343,-4.144 l 0,-1.217 -10.724,0 0,-1.689 z"
           style="fill:#ffffff;fill-opacity:1;fill-rule:nonzero;stroke:none"
           id="path102" />
      </g>
      <g
         id="g104"
         transform="translate(228.9038,576.4648)">
        <path
           d="m 0,0 c -0.419,-0.171 -0.799,-0.295 -1.139,-0.373 -1.099,-0.236 -1.885,-0.629 -2.357,-1.179 -0.472,-0.55 -0.707,-1.296 -0.707,-2.239 0,-0.813 0.157,-1.506 0.472,-2.082 0.314,-0.576 0.837,-0.864 1.571,-0.864 0.366,0 0.746,0.059 1.139,0.176 0.392,0.119 0.752,0.309 1.081,0.571 0.326,0.261 0.594,0.601 0.804,1.02 0.209,0.419 0.315,0.917 0.315,1.493 l 0,4.164 C 0.812,0.398 0.419,0.17 0,0 m -8.72,5.282 c 0,1.232 0.197,2.259 0.589,3.084 0.393,0.825 0.923,1.493 1.591,2.003 0.668,0.511 1.453,0.877 2.356,1.101 0.905,0.221 1.867,0.334 2.888,0.334 1.623,0 2.933,-0.158 3.928,-0.472 C 3.627,11.019 4.399,10.572 4.949,9.996 5.499,9.42 5.873,8.733 6.068,7.935 6.266,7.135 6.363,6.265 6.363,5.322 l 0,-11.116 c 0,-0.996 0.046,-1.768 0.138,-2.317 0.091,-0.55 0.269,-1.14 0.53,-1.768 l -5.185,0 c -0.183,0.34 -0.321,0.7 -0.412,1.08 -0.092,0.379 -0.177,0.752 -0.255,1.119 l -0.078,0 c -0.629,-1.099 -1.356,-1.813 -2.181,-2.14 -0.825,-0.327 -1.893,-0.492 -3.201,-0.492 -0.944,0 -1.742,0.165 -2.397,0.492 -0.655,0.327 -1.178,0.779 -1.571,1.354 -0.393,0.576 -0.681,1.225 -0.863,1.945 -0.184,0.72 -0.276,1.434 -0.276,2.141 0,0.995 0.104,1.853 0.315,2.572 0.209,0.72 0.53,1.336 0.962,1.847 0.432,0.511 0.982,0.936 1.65,1.276 0.667,0.34 1.472,0.642 2.415,0.904 l 3.065,0.825 c 0.811,0.209 1.374,0.497 1.688,0.864 0.314,0.367 0.472,0.904 0.472,1.611 0,0.811 -0.191,1.446 -0.57,1.905 -0.38,0.458 -1.028,0.687 -1.945,0.687 -0.838,0 -1.466,-0.25 -1.885,-0.747 C -3.64,6.867 -3.849,6.199 -3.849,5.361 l 0,-0.589 -4.871,0 0,0.51 z"
           style="fill:#ffffff;fill-opacity:1;fill-rule:nonzero;stroke:none"
           id="path106" />
      </g>
      <g
         id="g108"
         transform="translate(277.8247,587.7187)">
        <path
           d="m 0,0 0,-2.828 0.079,0 c 0.55,1.02 1.217,1.839 2.003,2.454 C 2.867,0.241 3.823,0.55 4.949,0.55 5.106,0.55 5.27,0.542 5.44,0.53 5.61,0.516 5.774,0.497 5.932,0.471 l 0,-5.185 C 5.643,-4.688 5.361,-4.669 5.087,-4.655 4.812,-4.643 4.53,-4.635 4.242,-4.635 3.771,-4.635 3.3,-4.701 2.828,-4.832 2.357,-4.963 1.925,-5.179 1.532,-5.48 1.139,-5.781 0.825,-6.174 0.59,-6.658 0.354,-7.144 0.235,-7.738 0.235,-8.445 l 0,-12.688 -5.42,0 L -5.185,0 0,0 Z"
           style="fill:#ffffff;fill-opacity:1;fill-rule:nonzero;stroke:none"
           id="path110" />
      </g>
      <g
         id="g112"
         transform="translate(261.77,507.8086)">
        <path
           d="m 0,0 c -0.576,-1.048 -1.322,-1.794 -2.239,-2.239 -0.917,-0.445 -1.964,-0.668 -3.142,-0.668 -1.728,0 -3.058,0.452 -3.987,1.355 -0.93,0.904 -1.396,2.416 -1.396,4.536 l 0,15.673 5.422,0 0,-14.572 c 0,-1.101 0.183,-1.866 0.55,-2.298 0.366,-0.432 0.955,-0.648 1.768,-0.648 1.911,0 2.867,1.165 2.867,3.496 l 0,14.022 5.421,0 0,-21.132 -5.186,0 L 0.078,0 0,0 Z"
           style="fill:#ffffff;fill-opacity:1;fill-rule:nonzero;stroke:none"
           id="path114" />
      </g>
      <g
         id="g116"
         transform="translate(304.7808,511.54)">
        <path
           d="m 0,0 c 0,-0.917 0.243,-1.657 0.728,-2.22 0.483,-0.562 1.183,-0.844 2.101,-0.844 0.837,0 1.505,0.21 2.004,0.628 0.497,0.418 0.745,1.047 0.745,1.886 0,0.681 -0.195,1.198 -0.589,1.551 C 4.596,1.355 4.138,1.636 3.614,1.847 l -3.809,1.374 c -1.493,0.523 -2.619,1.263 -3.378,2.219 -0.76,0.956 -1.14,2.18 -1.14,3.673 0,0.865 0.144,1.683 0.432,2.455 0.288,0.772 0.746,1.447 1.375,2.023 0.629,0.576 1.434,1.034 2.415,1.375 0.982,0.34 2.167,0.511 3.556,0.511 2.461,0 4.282,-0.525 5.459,-1.572 1.179,-1.048 1.768,-2.527 1.768,-4.439 l 0,-0.863 -4.87,0 c 0,1.099 -0.177,1.904 -0.53,2.416 -0.355,0.509 -0.977,0.765 -1.867,0.765 -0.68,0 -1.276,-0.19 -1.787,-0.57 C 0.728,10.834 0.473,10.265 0.473,9.506 0.473,8.981 0.635,8.51 0.963,8.092 1.29,7.673 1.911,7.319 2.829,7.031 l 3.26,-1.099 c 1.702,-0.578 2.906,-1.33 3.614,-2.259 0.706,-0.93 1.061,-2.194 1.061,-3.791 0,-1.126 -0.197,-2.102 -0.59,-2.927 C 9.782,-3.869 9.238,-4.557 8.544,-5.106 7.851,-5.656 7.024,-6.049 6.069,-6.284 5.113,-6.521 4.06,-6.639 2.907,-6.639 c -1.519,0 -2.782,0.145 -3.79,0.433 -1.009,0.288 -1.807,0.72 -2.396,1.296 -0.589,0.575 -1.002,1.276 -1.238,2.101 -0.235,0.826 -0.353,1.748 -0.353,2.77 l 0,0.746 4.87,0 L 0,0 Z"
           style="fill:#ffffff;fill-opacity:1;fill-rule:nonzero;stroke:none"
           id="path118" />
      </g>
      <g
         id="g120"
         transform="translate(356.8188,582.2627)">
        <path
           d="m 0,0 0.139,0 0,34.009 9.18,0 0,-49.656 -11.405,0 -12.24,34.773 -0.139,0 0,-34.773 -9.181,0 0,49.656 11.544,0 L 0,0 Z"
           style="fill:#ffffff;fill-opacity:1;fill-rule:nonzero;stroke:none"
           id="path122" />
      </g>
      <g
         id="g124"
         transform="translate(379.5259,582.9238)">
        <path
           d="M 0,0 C 0.162,-2.342 0.486,-4.242 0.973,-5.703 1.46,-7.163 2.156,-8.23 3.06,-8.902 3.965,-9.575 5.157,-9.91 6.642,-9.91 c 1.483,0 2.676,0.335 3.582,1.008 0.905,0.672 1.599,1.739 2.086,3.199 0.486,1.461 0.809,3.361 0.973,5.703 0.163,2.341 0.244,5.181 0.244,8.519 0,3.339 -0.081,6.166 -0.244,8.485 -0.164,2.317 -0.487,4.219 -0.973,5.702 -0.487,1.484 -1.181,2.562 -2.086,3.235 -0.906,0.672 -2.099,1.008 -3.582,1.008 -1.485,0 -2.677,-0.336 -3.582,-1.008 C 2.156,25.268 1.46,24.19 0.973,22.706 0.486,21.223 0.162,19.321 0,17.004 -0.163,14.685 -0.243,11.858 -0.243,8.519 -0.243,5.181 -0.163,2.341 0,0 m -9.737,18.917 c 0.347,3.175 1.114,5.898 2.296,8.171 1.181,2.271 2.886,4.045 5.111,5.32 2.226,1.275 5.217,1.912 8.972,1.912 3.754,0 6.746,-0.637 8.972,-1.912 2.224,-1.275 3.929,-3.049 5.111,-5.32 1.183,-2.273 1.947,-4.996 2.295,-8.171 0.347,-3.177 0.522,-6.642 0.522,-10.398 0,-3.802 -0.175,-7.279 -0.522,-10.432 -0.348,-3.152 -1.112,-5.866 -2.295,-8.137 -1.182,-2.272 -2.887,-4.011 -5.111,-5.216 -2.226,-1.205 -5.218,-1.808 -8.972,-1.808 -3.755,0 -6.746,0.603 -8.972,1.808 -2.225,1.205 -3.93,2.944 -5.111,5.216 -1.182,2.271 -1.949,4.985 -2.296,8.137 -0.347,3.153 -0.522,6.63 -0.522,10.432 0,3.756 0.175,7.221 0.522,10.398"
           style="fill:#ffffff;fill-opacity:1;fill-rule:nonzero;stroke:none"
           id="path126" />
      </g>
      <g
         id="g128"
         transform="translate(412.8745,616.2715)">
        <path
           d="m 0,0 5.493,-36.721 0.139,0 5.842,36.721 9.597,0 5.842,-36.721 0.141,0 5.493,36.721 9.599,0 -9.042,-49.656 -11.199,0 -5.563,36.025 -0.139,0 -5.563,-36.025 -11.199,0 L -9.599,0 0,0 Z"
           style="fill:#ffffff;fill-opacity:1;fill-rule:nonzero;stroke:none"
           id="path130" />
      </g>
      <path
         d="m 473.657,566.615 -9.597,0 0,9.18 9.597,0 0,-9.18 z m -18.36,35.886 c 0,2.086 0.289,4.01 0.869,5.772 0.58,1.762 1.436,3.268 2.573,4.521 1.136,1.251 2.573,2.236 4.312,2.955 1.739,0.719 3.742,1.078 6.016,1.078 4.913,0 8.589,-1.217 11.023,-3.651 2.434,-2.434 3.652,-5.692 3.652,-9.771 0,-1.948 -0.314,-3.755 -0.94,-5.425 -0.626,-1.669 -1.772,-3.476 -3.442,-5.424 l -2.782,-3.129 c -1.206,-1.346 -2.076,-2.573 -2.607,-3.687 -0.534,-1.112 -0.801,-2.551 -0.801,-4.312 l 0,-1.043 -8.624,0 0,2.713 c 0,2.317 0.325,4.276 0.975,5.877 0.647,1.599 1.761,3.278 3.337,5.041 l 2.642,2.992 c 0.974,1.064 1.66,2.212 2.052,3.441 0.394,1.228 0.592,2.539 0.592,3.93 0,1.761 -0.394,3.186 -1.183,4.277 -0.789,1.089 -1.971,1.634 -3.546,1.634 -1.763,0 -3.025,-0.708 -3.79,-2.121 -0.765,-1.416 -1.149,-3.258 -1.149,-5.528 l 0,-1.74 -9.179,0 0,1.6 z"
         style="fill:#ffffff;fill-opacity:1;fill-rule:nonzero;stroke:none"
         id="path132" />
    </g>
  </g>
</svg>
